<svg xmlns="http://www.w3.org/2000/svg" xmlns:xlink="http://www.w3.org/1999/xlink" xmlns:lucid="lucid" width="2198.91" height="766.53"><g transform="translate(-381.08960788721174 -90.61626040101083)" lucid:page-tab-id="0_0"><path d="M0 0h2646.4v1870.4H0z" fill="#999"/><path d="M401.1 580h160v120c-26.73-20.04-43.37-20.04-53.45-20.04-16 0-37.28 20.04-53.28 20.04-9.92 0-26.72 0-53.28-20.04z" stroke="#000" stroke-width="2" fill="#fff"/><use xlink:href="#a" transform="matrix(1,0,0,1,406.08960788721174,585) translate(24.599999999999994 36.9)"/><use xlink:href="#b" transform="matrix(1,0,0,1,406.08960788721174,585) translate(65.5 36.9)"/><use xlink:href="#c" transform="matrix(1,0,0,1,406.08960788721174,585) translate(85.5 36.9)"/><use xlink:href="#d" transform="matrix(1,0,0,1,406.08960788721174,585) translate(44.574999999999996 58.5)"/><path d="M563.1 640h23.4" stroke="#000" stroke-width="2" fill="none"/><path d="M563.12 641h-1.03v-2h1.02z"/><path d="M601.77 640l-14.27 4.64v-9.28z" stroke="#000" stroke-width="2"/><path d="M601.1 560h20v160h-20z" fill="none"/><path d="M601.1 720c5.5 0 10-4.48 10-10v-60c0-5.52 4.47-10 10-10-5.53 0-10-4.48-10-10v-60c0-5.52-4.5-10-10-10" stroke="#000" stroke-width="2" fill="none"/><use xlink:href="#e" transform="matrix(1,0,0,1,621.0896078872117,565) translate(0 78.60000000000001)"/><path d="M529.1 119.37c17.66 0 32 13.43 32 30 0 16.56-14.34 30-32 30h-96c-17.68 0-32-13.44-32-30 0-16.57 14.32-30 32-30z" stroke="#000" stroke-width="6" fill="#de5f85"/><use xlink:href="#f" transform="matrix(1,0,0,1,406.08960788721174,124.36626040101083) translate(12.549999999999997 30.025)"/><use xlink:href="#g" transform="matrix(1,0,0,1,406.08960788721174,124.36626040101083) translate(59.5 30.025)"/><use xlink:href="#h" transform="matrix(1,0,0,1,406.08960788721174,124.36626040101083) translate(93.5 30.025)"/><use xlink:href="#i" transform="matrix(1,0,0,1,406.08960788721174,124.36626040101083) translate(107.45 30.025)"/><path d="M481.1 183.37v26.5" stroke="#000" stroke-width="2" fill="none"/><path d="M482.1 183.4h-2v-1.03h2z"/><path d="M481.1 225.13l-4.65-14.27h9.27z" stroke="#000" stroke-width="2"/><path d="M401.1 229.37h160v53.75h-160z" stroke="#000" stroke-width="2" fill="#fff"/><use xlink:href="#j" transform="matrix(1,0,0,1,406.08960788721174,234.36626040101083) translate(31.574999999999996 14.4)"/><use xlink:href="#k" transform="matrix(1,0,0,1,406.08960788721174,234.36626040101083) translate(31.049999999999997 36)"/><use xlink:href="#l" transform="matrix(1,0,0,1,406.08960788721174,234.36626040101083) translate(31.049999999999997 57.6)"/><path d="M721.1 279.37c0-5.53 4.47-10 10-10h140c5.5 0 10 4.47 10 10v20c0 5.52-4.5 10-10 10h-140c-5.53 0-10-4.48-10-10z" stroke="#000" stroke-width="4" fill="#0c7cba"/><use xlink:href="#m" transform="matrix(1,0,0,1,726.0896078872117,274.36626040101083) translate(47.7 18.15)"/><path d="M849.1 110.62c17.66 0 32 17.35 32 38.75s-14.34 38.75-32 38.75h-96c-17.68 0-32-17.35-32-38.75s14.32-38.75 32-38.75z" stroke="#000" stroke-width="6" fill="#de5f85"/><use xlink:href="#n" transform="matrix(1,0,0,1,726.0896078872117,115.61626040101083) translate(40.05 27.15)"/><use xlink:href="#o" transform="matrix(1,0,0,1,726.0896078872117,115.61626040101083) translate(35.55 48.75)"/><path d="M721.1 361.87c0-5.53 4.47-10 10-10h140c5.5 0 10 4.47 10 10v17.5c0 5.52-4.5 10-10 10h-140c-5.53 0-10-4.48-10-10z" stroke="#000" stroke-width="4" fill="#83bbe5"/><use xlink:href="#p" transform="matrix(1,0,0,1,726.0896078872117,356.86626040101083) translate(22.075000000000003 17.9)"/><use xlink:href="#q" transform="matrix(1,0,0,1,726.0896078872117,356.86626040101083) translate(82.975 17.9)"/><path d="M717.1 149.37h-39v221.25h22.5" stroke="#000" stroke-width="2" fill="none"/><path d="M718.1 149.3v1.07h-1.04v-2h1.1z"/><path d="M715.85 370.62l-14.26 4.63v-9.27z" stroke="#000" stroke-width="2"/><path d="M717.1 149.37h-39v140h22.5" stroke="#000" stroke-width="2" fill="none"/><path d="M718.1 149.3v1.07h-1.04v-2h1.1z"/><path d="M715.85 289.37L701.6 294v-9.27z" stroke="#000" stroke-width="2"/><path d="M721.1 441.87c0-5.53 4.47-10 10-10h140c5.5 0 10 4.47 10 10v17.5c0 5.52-4.5 10-10 10h-140c-5.53 0-10-4.48-10-10z" stroke="#000" stroke-width="4" fill="#83bbe5"/><use xlink:href="#r" transform="matrix(1,0,0,1,726.0896078872117,436.86626040101083) translate(39.025 17.9)"/><path d="M884.1 289.37h39v161.25h-21.5" stroke="#000" stroke-width="2" fill="none"/><path d="M884.12 290.37h-1.03v-2h1.02z"/><path d="M886.33 450.62l14.26-4.64v9.27z" stroke="#000" stroke-width="2"/><path d="M401.1 343.12c0-5.53 4.47-10 10-10H590c5.52 0 10 4.47 10 10v20c0 5.52-4.48 10-10 10H411.1c-5.53 0-10-4.48-10-10z" stroke="#000" stroke-width="4" fill="#0c7cba"/><use xlink:href="#s" transform="matrix(1,0,0,1,406.08960788721174,338.11626040101083) translate(17.14999999999999 14.4)"/><use xlink:href="#t" transform="matrix(1,0,0,1,406.08960788721174,338.11626040101083) translate(97 14.4)"/><use xlink:href="#u" transform="matrix(1,0,0,1,406.08960788721174,338.11626040101083) translate(67.2 36)"/><path d="M401.1 433.12c0-5.53 4.47-10 10-10h140c5.5 0 10 4.47 10 10v20c0 5.52-4.5 10-10 10h-140c-5.53 0-10-4.48-10-10z" stroke="#000" stroke-width="4" fill="#83bbe5"/><use xlink:href="#v" transform="matrix(1,0,0,1,406.08960788721174,428.11626040101083) translate(57.05 18.15)"/><path d="M603 353.12h39v99.54h-60.4" stroke="#000" stroke-width="2" fill="none"/><path d="M603.03 354.12H602v-2h1.03z"/><path d="M566.33 452.66l14.26-4.64v9.27z" stroke="#000" stroke-width="2"/><path d="M1169.1 119.37c17.66 0 32 13.43 32 30 0 16.56-14.34 30-32 30h-96c-17.68 0-32-13.44-32-30 0-16.57 14.32-30 32-30z" stroke="#000" stroke-width="6" fill="#de5f85"/><use xlink:href="#f" transform="matrix(1,0,0,1,1046.089607887212,124.36626040101083) translate(21.575000000000003 30.025)"/><use xlink:href="#w" transform="matrix(1,0,0,1,1046.089607887212,124.36626040101083) translate(68.525 30.025)"/><use xlink:href="#x" transform="matrix(1,0,0,1,1046.089607887212,124.36626040101083) translate(88.525 30.025)"/><path d="M1041.1 279.37c0-5.53 4.47-10 10-10h140c5.5 0 10 4.47 10 10v20c0 5.52-4.5 10-10 10h-140c-5.53 0-10-4.48-10-10z" stroke="#000" stroke-width="4" fill="#0c7cba"/><use xlink:href="#y" transform="matrix(1,0,0,1,1046.089607887212,274.36626040101083) translate(40.025 18.15)"/><path d="M1041.1 360.62c0-5.53 4.47-10 10-10h171.47c5.52 0 10 4.47 10 10v20c0 5.52-4.48 10-10 10H1051.1c-5.53 0-10-4.48-10-10z" stroke="#000" stroke-width="4" fill="#0c7cba"/><use xlink:href="#z" transform="matrix(1,0,0,1,1046.0896078872115,355.61626040101083) translate(12.625 18.15)"/><use xlink:href="#A" transform="matrix(1,0,0,1,1046.0896078872115,355.61626040101083) translate(83.475 18.15)"/><use xlink:href="#B" transform="matrix(1,0,0,1,1046.0896078872115,355.61626040101083) translate(120.375 18.15)"/><path d="M1041.1 441.87c0-5.53 4.47-10 10-10h140c5.5 0 10 4.47 10 10v20c0 5.52-4.5 10-10 10h-140c-5.53 0-10-4.48-10-10z" stroke="#000" stroke-width="4" fill="#0c7cba"/><use xlink:href="#C" transform="matrix(1,0,0,1,1046.089607887212,436.86626040101083) translate(35 18.15)"/><use xlink:href="#D" transform="matrix(1,0,0,1,1046.089607887212,436.86626040101083) translate(76 18.15)"/><path d="M721.1 521.87c0-5.53 4.47-10 10-10h140c5.5 0 10 4.47 10 10v17.5c0 5.52-4.5 10-10 10h-140c-5.53 0-10-4.48-10-10z" stroke="#000" stroke-width="4" fill="#83bbe5"/><use xlink:href="#E" transform="matrix(1,0,0,1,726.0896078872117,516.8662604010108) translate(21.599999999999994 17.9)"/><use xlink:href="#F" transform="matrix(1,0,0,1,726.0896078872117,516.8662604010108) translate(96.5 17.9)"/><path d="M1302.68 443.12c0-5.53 4.48-10 10-10h140c5.52 0 10 4.47 10 10v17.5c0 5.52-4.48 10-10 10h-140c-5.52 0-10-4.48-10-10z" stroke="#000" stroke-width="4" fill="#83bbe5"/><use xlink:href="#C" transform="matrix(1,0,0,1,1307.679354840282,438.11626040101083) translate(21.025 17.9)"/><use xlink:href="#G" transform="matrix(1,0,0,1,1307.679354840282,438.11626040101083) translate(62.025 17.9)"/><path d="M1204.1 451.87h78.08" stroke="#000" stroke-width="2" fill="none"/><path d="M1204.12 452.87h-1.03v-2h1.02z"/><path d="M1297.44 451.87l-14.26 4.63v-9.27z" stroke="#000" stroke-width="2"/><path d="M881.1 652.85c0-5.52 4.47-10 10-10h140c5.5 0 10 4.48 10 10v17.5c0 5.52-4.5 10-10 10h-140c-5.53 0-10-4.48-10-10z" fill="#ef8d22"/><path d="M883.1 652.85c0 1.1-.9 2-2 2s-2-.9-2-2 .9-2 2-2 2 .9 2 2zm10-10c0 1.1-.9 2-2 2s-2-.9-2-2 .9-2 2-2 2 .9 2 2zm15.55 0c0 1.1-.9 2-2 2s-2-.9-2-2 .9-2 2-2 2 .9 2 2zm15.55 0c0 1.1-.9 2-2 2s-2-.9-2-2 .9-2 2-2 2 .9 2 2zm15.56 0c0 1.1-.9 2-2 2s-2-.9-2-2 .9-2 2-2 2 .9 2 2zm15.55 0c0 1.1-.88 2-2 2-1.1 0-2-.9-2-2s.9-2 2-2c1.12 0 2 .9 2 2zm15.57 0c0 1.1-.9 2-2 2s-2-.9-2-2 .9-2 2-2 2 .9 2 2zm15.55 0c0 1.1-.9 2-2 2s-2-.9-2-2 .9-2 2-2 2 .9 2 2zm15.56 0c0 1.1-.9 2-2 2s-2-.9-2-2 .9-2 2-2 2 .9 2 2zm15.55 0c0 1.1-.9 2-2 2s-2-.9-2-2 .9-2 2-2 2 .9 2 2zm15.56 0c0 1.1-.9 2-2 2s-2-.9-2-2 .9-2 2-2 2 .9 2 2zm10 10c0 1.1-.9 2-2 2s-2-.9-2-2 .9-2 2-2 2 .9 2 2zm0 17.5c0 1.1-.9 2-2 2s-2-.9-2-2 .9-2 2-2 2 .9 2 2zm-10 10c0 1.1-.9 2-2 2s-2-.9-2-2 .9-2 2-2 2 .9 2 2zm-15.57 0c0 1.1-.9 2-2 2s-2-.9-2-2 .9-2 2-2 2 .9 2 2zm-15.55 0c0 1.1-.9 2-2 2s-2-.9-2-2 .9-2 2-2 2 .9 2 2zm-15.56 0c0 1.1-.9 2-2 2s-2-.9-2-2 .9-2 2-2 2 .9 2 2zm-15.55 0c0 1.1-.9 2-2 2s-2-.9-2-2 .9-2 2-2 2 .9 2 2zm-15.56 0c0 1.1-.88 2-2 2-1.1 0-2-.9-2-2s.9-2 2-2c1.12 0 2 .9 2 2zm-15.54 0c0 1.1-.9 2-2 2s-2-.9-2-2 .9-2 2-2 2 .9 2 2zm-15.56 0c0 1.1-.9 2-2 2s-2-.9-2-2 .9-2 2-2 2 .9 2 2zm-15.55 0c0 1.1-.9 2-2 2s-2-.9-2-2 .9-2 2-2 2 .9 2 2zm-15.56 0c0 1.1-.9 2-2 2s-2-.9-2-2 .9-2 2-2 2 .9 2 2zm-10-10c0 1.1-.9 2-2 2s-2-.9-2-2 .9-2 2-2 2 .9 2 2z"/><use xlink:href="#H" transform="matrix(1,0,0,1,886.0896078872117,647.8500366210938) translate(13.574999999999996 17.9)"/><use xlink:href="#I" transform="matrix(1,0,0,1,886.0896078872117,647.8500366210938) translate(46.525 17.9)"/><use xlink:href="#J" transform="matrix(1,0,0,1,886.0896078872117,647.8500366210938) translate(97.42500000000001 17.9)"/><path d="M961.1 639.85V379.82h-59.56" stroke="#ef8d22" stroke-width="2" fill="none"/><path d="M962.1 640.85h-2v-1.03h2z" fill="#ef8d22"/><path d="M886.28 379.82l14.26-4.64v9.28z" stroke="#ef8d22" stroke-width="2" fill="#ef8d22"/><path d="M1302.68 502.04c0-5.52 4.48-10 10-10h140c5.52 0 10 4.48 10 10v57.15c0 5.5-4.48 10-10 10h-140c-5.52 0-10-4.5-10-10z" fill="#ef8d22"/><path d="M1304.68 502.04c0 1.1-.9 2-2 2s-2-.9-2-2 .9-2 2-2 2 .9 2 2zm10-10c0 1.1-.9 2-2 2s-2-.9-2-2 .9-2 2-2 2 .9 2 2zm15.55 0c0 1.1-.9 2-2 2s-2-.9-2-2 .9-2 2-2 2 .9 2 2zm15.56 0c0 1.1-.9 2-2 2s-2-.9-2-2 .9-2 2-2 2 .9 2 2zm15.55 0c0 1.1-.9 2-2 2s-2-.9-2-2 .9-2 2-2 2 .9 2 2zm15.55 0c0 1.1-.9 2-2 2s-2-.9-2-2 .9-2 2-2 2 .9 2 2zm15.56 0c0 1.1-.9 2-2 2s-2-.9-2-2 .9-2 2-2 2 .9 2 2zm15.55 0c0 1.1-.88 2-2 2-1.1 0-2-.9-2-2s.9-2 2-2c1.12 0 2 .9 2 2zm15.57 0c0 1.1-.9 2-2 2s-2-.9-2-2 .9-2 2-2 2 .9 2 2zm15.55 0c0 1.1-.9 2-2 2s-2-.9-2-2 .9-2 2-2 2 .9 2 2zm15.56 0c0 1.1-.9 2-2 2s-2-.9-2-2 .9-2 2-2 2 .9 2 2zm10 10c0 1.1-.9 2-2 2s-2-.9-2-2 .9-2 2-2 2 .9 2 2zm0 14.3c0 1.1-.9 2-2 2s-2-.9-2-2c0-1.12.9-2 2-2s2 .88 2 2zm0 14.28c0 1.1-.9 2-2 2s-2-.9-2-2 .9-2 2-2 2 .9 2 2zm0 14.28c0 1.1-.9 2-2 2s-2-.9-2-2 .9-2 2-2 2 .9 2 2zm0 14.3c0 1.1-.9 2-2 2s-2-.9-2-2 .9-2 2-2 2 .9 2 2zm-10 10c0 1.1-.9 2-2 2s-2-.9-2-2 .9-2 2-2 2 .9 2 2zm-15.56 0c0 1.1-.9 2-2 2s-2-.9-2-2 .9-2 2-2 2 .9 2 2zm-15.55 0c0 1.1-.9 2-2 2s-2-.9-2-2 .9-2 2-2 2 .9 2 2zm-15.56 0c0 1.1-.88 2-2 2-1.1 0-2-.9-2-2s.9-2 2-2c1.12 0 2 .9 2 2zm-15.54 0c0 1.1-.9 2-2 2s-2-.9-2-2 .9-2 2-2 2 .9 2 2zm-15.56 0c0 1.1-.9 2-2 2s-2-.9-2-2 .9-2 2-2 2 .9 2 2zm-15.55 0c0 1.1-.9 2-2 2s-2-.9-2-2 .9-2 2-2 2 .9 2 2zm-15.56 0c0 1.1-.9 2-2 2s-2-.9-2-2 .9-2 2-2 2 .9 2 2zm-15.57 0c0 1.1-.9 2-2 2s-2-.9-2-2 .9-2 2-2 2 .9 2 2zm-15.55 0c0 1.1-.9 2-2 2s-2-.9-2-2 .9-2 2-2 2 .9 2 2zm-10-10c0 1.1-.9 2-2 2s-2-.9-2-2 .9-2 2-2 2 .9 2 2zm0-14.3c0 1.1-.9 2-2 2s-2-.9-2-2 .9-2 2-2 2 .9 2 2zm0-14.28c0 1.1-.9 2-2 2s-2-.9-2-2 .9-2 2-2 2 .9 2 2zm0-14.3c0 1.1-.9 2-2 2s-2-.9-2-2 .9-2 2-2 2 .9 2 2z"/><use xlink:href="#K" transform="matrix(1,0,0,1,1307.679354840282,497.04127871155765) translate(19.574999999999996 27.15)"/><use xlink:href="#L" transform="matrix(1,0,0,1,1307.679354840282,497.04127871155765) translate(68.525 27.15)"/><use xlink:href="#M" transform="matrix(1,0,0,1,1307.679354840282,497.04127871155765) translate(97.475 27.15)"/><use xlink:href="#N" transform="matrix(1,0,0,1,1307.679354840282,497.04127871155765) translate(30.599999999999994 48.75)"/><use xlink:href="#O" transform="matrix(1,0,0,1,1307.679354840282,497.04127871155765) translate(97.5 48.75)"/><path d="M961.1 639.85V530.62h-59.5" stroke="#ef8d22" stroke-width="2" fill="none"/><path d="M962.1 640.85h-2v-1.03h2z" fill="#ef8d22"/><path d="M886.33 530.62l14.26-4.64v9.27z" stroke="#ef8d22" stroke-width="2" fill="#ef8d22"/><path d="M1728 119.37c17.67 0 32 13.43 32 30 0 16.56-14.33 30-32 30h-96c-17.67 0-32-13.44-32-30 0-16.57 14.33-30 32-30z" stroke="#000" stroke-width="6" fill="#de5f85"/><use xlink:href="#P" transform="matrix(1,0,0,1,1605,124.36626040101083) translate(12.555000000000001 17.525)"/><use xlink:href="#Q" transform="matrix(1,0,0,1,1605,124.36626040101083) translate(66.555 17.525)"/><use xlink:href="#R" transform="matrix(1,0,0,1,1605,124.36626040101083) translate(23.054999999999993 39.125)"/><use xlink:href="#S" transform="matrix(1,0,0,1,1605,124.36626040101083) translate(33.05499999999999 39.125)"/><path d="M1600 212.77c0-5.53 4.48-10 10-10h140c5.52 0 10 4.47 10 10v33.2c0 5.52-4.48 10-10 10h-140c-5.52 0-10-4.48-10-10z" stroke="#000" stroke-width="4" fill="#0c7cba"/><use xlink:href="#T" transform="matrix(1,0,0,1,1605,207.76626040101084) translate(19 14.4)"/><use xlink:href="#U" transform="matrix(1,0,0,1,1605,207.76626040101084) translate(109 14.4)"/><use xlink:href="#V" transform="matrix(1,0,0,1,1605,207.76626040101084) translate(13.549999999999997 36)"/><use xlink:href="#W" transform="matrix(1,0,0,1,1605,207.76626040101084) translate(66.45 36)"/><path d="M1600 289.37c0-5.53 4.48-10 10-10h140c5.52 0 10 4.47 10 10v33.2c0 5.52-4.48 10-10 10h-140c-5.52 0-10-4.48-10-10z" stroke="#000" stroke-width="4" fill="#0c7cba"/><use xlink:href="#X" transform="matrix(1,0,0,1,1605,284.3662604010109) translate(13.124999999999993 14.4)"/><use xlink:href="#Y" transform="matrix(1,0,0,1,1605,284.3662604010109) translate(72.975 14.4)"/><use xlink:href="#Z" transform="matrix(1,0,0,1,1605,284.3662604010109) translate(51.05 36)"/><a xlink:href="https://www.youtube.com/watch?v=7X-r_XarMLI" target="_blank"><path d="M1860 121.97c0-5.53 4.48-10 10-10h140c5.52 0 10 4.47 10 10v54.8c0 5.52-4.48 10-10 10h-140c-5.52 0-10-4.48-10-10z" stroke="#000" stroke-width="4" fill="#3aa6dd"/><use xlink:href="#aa" transform="matrix(1,0,0,1,1865,116.96626040101083) translate(50.525 14.4)"/><use xlink:href="#ab" transform="matrix(1,0,0,1,1865,116.96626040101083) translate(22.074999999999996 36)"/><use xlink:href="#ac" transform="matrix(1,0,0,1,1865,116.96626040101083) translate(46.375 57.6)"/><path class="lucid-link lucid-hotspot lucid-overlay-hotspot" d="M1860 121.97c0-5.53 4.48-10 10-10h140c5.52 0 10 4.47 10 10v54.8c0 5.52-4.48 10-10 10h-140c-5.52 0-10-4.48-10-10z" fill="none"/></a><path d="M1600 383.12c0-5.53 4.48-10 10-10h140c5.52 0 10 4.47 10 10v54.8c0 5.52-4.48 10-10 10h-140c-5.52 0-10-4.48-10-10z" stroke="#000" stroke-width="4" fill="#0c7cba"/><use xlink:href="#ad" transform="matrix(1,0,0,1,1605,378.11626040101083) translate(31.275 14.4)"/><use xlink:href="#ae" transform="matrix(1,0,0,1,1605,378.11626040101083) translate(9.599999999999994 36)"/><use xlink:href="#af" transform="matrix(1,0,0,1,1605,378.11626040101083) translate(33.1 57.6)"/><path d="M1763 305.97h47v-156.6h29.5" stroke="#000" stroke-width="2" fill="none"/><path d="M1763.03 306.97H1762v-2h1.03z"/><path d="M1854.76 149.37L1840.5 154v-9.27z" stroke="#000" stroke-width="2"/><path d="M1763 410.52h47V149.37h29.5" stroke="#000" stroke-width="2" fill="none"/><path d="M1763.03 411.52H1762v-2h1.03z"/><path d="M1854.76 149.37L1840.5 154v-9.27z" stroke="#000" stroke-width="2"/><path d="M1600 530c0-5.52 4.48-10 10-10h140c5.52 0 10 4.48 10 10v33.2c0 5.52-4.48 10-10 10h-140c-5.52 0-10-4.48-10-10z" stroke="#000" stroke-width="4" fill="#0c7cba"/><use xlink:href="#ag" transform="matrix(1,0,0,1,1605,525) translate(27.049999999999997 25.4)"/><use xlink:href="#ah" transform="matrix(1,0,0,1,1605,525) translate(76 25.4)"/><path d="M1600 610c0-5.52 4.48-10 10-10h140c5.52 0 10 4.48 10 10v33.2c0 5.52-4.48 10-10 10h-140c-5.52 0-10-4.48-10-10z" stroke="#000" stroke-width="4" fill="#0c7cba"/><use xlink:href="#ai" transform="matrix(1,0,0,1,1605,605) translate(0.125 25.4)"/><use xlink:href="#aj" transform="matrix(1,0,0,1,1605,605) translate(68.975 25.4)"/><path d="M1600 770c0-5.52 4.48-10 10-10h140c5.52 0 10 4.48 10 10v57.15c0 5.52-4.48 10-10 10h-140c-5.52 0-10-4.48-10-10z" fill="#ef8d22"/><path d="M1602 770c0 1.1-.9 2-2 2s-2-.9-2-2 .9-2 2-2 2 .9 2 2zm10-10c0 1.1-.9 2-2 2s-2-.9-2-2 .9-2 2-2 2 .9 2 2zm15.56 0c0 1.1-.9 2-2 2s-2-.9-2-2 .9-2 2-2 2 .9 2 2zm15.55 0c0 1.1-.88 2-2 2-1.1 0-2-.9-2-2s.9-2 2-2c1.12 0 2 .9 2 2zm15.57 0c0 1.1-.9 2-2 2s-2-.9-2-2 .9-2 2-2 2 .9 2 2zm15.55 0c0 1.1-.9 2-2 2s-2-.9-2-2 .9-2 2-2 2 .9 2 2zm15.56 0c0 1.1-.9 2-2 2s-2-.9-2-2 .9-2 2-2 2 .9 2 2zm15.55 0c0 1.1-.9 2-2 2s-2-.9-2-2 .9-2 2-2 2 .9 2 2zm15.56 0c0 1.1-.9 2-2 2-1.12 0-2-.9-2-2s.88-2 2-2c1.1 0 2 .9 2 2zm15.54 0c0 1.1-.9 2-2 2s-2-.9-2-2 .9-2 2-2 2 .9 2 2zm15.56 0c0 1.1-.9 2-2 2s-2-.9-2-2 .9-2 2-2 2 .9 2 2zm10 10c0 1.1-.9 2-2 2s-2-.9-2-2 .9-2 2-2 2 .9 2 2zm0 14.3c0 1.1-.9 2-2 2s-2-.9-2-2c0-1.12.9-2 2-2s2 .88 2 2zm0 14.27c0 1.1-.9 2-2 2s-2-.9-2-2 .9-2 2-2 2 .9 2 2zm0 14.3c0 1.1-.9 2-2 2s-2-.9-2-2 .9-2 2-2 2 .9 2 2zm0 14.28c0 1.1-.9 2-2 2s-2-.9-2-2 .9-2 2-2 2 .9 2 2zm-10 10c0 1.1-.9 2-2 2s-2-.9-2-2 .9-2 2-2 2 .9 2 2zm-15.56 0c0 1.1-.9 2-2 2s-2-.9-2-2 .9-2 2-2 2 .9 2 2zm-15.55 0c0 1.1-.9 2-2 2-1.12 0-2-.9-2-2s.88-2 2-2c1.1 0 2 .9 2 2zm-15.57 0c0 1.1-.9 2-2 2s-2-.9-2-2 .9-2 2-2 2 .9 2 2zm-15.55 0c0 1.1-.9 2-2 2s-2-.9-2-2 .9-2 2-2 2 .9 2 2zm-15.56 0c0 1.1-.9 2-2 2s-2-.9-2-2 .9-2 2-2 2 .9 2 2zm-15.55 0c0 1.1-.9 2-2 2s-2-.9-2-2 .9-2 2-2 2 .9 2 2zm-15.56 0c0 1.1-.88 2-2 2-1.1 0-2-.9-2-2s.9-2 2-2c1.12 0 2 .9 2 2zm-15.54 0c0 1.1-.9 2-2 2s-2-.9-2-2 .9-2 2-2 2 .9 2 2zm-15.56 0c0 1.1-.9 2-2 2s-2-.9-2-2 .9-2 2-2 2 .9 2 2zm-10-10c0 1.1-.9 2-2 2s-2-.9-2-2 .9-2 2-2 2 .9 2 2zm0-14.3c0 1.12-.9 2-2 2s-2-.88-2-2c0-1.1.9-2 2-2s2 .9 2 2zm0-14.28c0 1.1-.9 2-2 2s-2-.9-2-2 .9-2 2-2 2 .9 2 2zm0-14.28c0 1.1-.9 2-2 2s-2-.9-2-2c0-1.12.9-2 2-2s2 .88 2 2z"/><use xlink:href="#ak" transform="matrix(1,0,0,1,1605,765) translate(5.049999999999997 27.15)"/><use xlink:href="#al" transform="matrix(1,0,0,1,1605,765) translate(104.95 27.15)"/><use xlink:href="#am" transform="matrix(1,0,0,1,1605,765) translate(20.049999999999997 48.75)"/><path d="M1302.68 617.85c0-5.52 4.48-10 10-10h140c5.52 0 10 4.48 10 10v17.5c0 5.52-4.48 10-10 10h-140c-5.52 0-10-4.48-10-10z" stroke="#000" stroke-width="4" fill="#83bbe5"/><g><use xlink:href="#an" transform="matrix(1,0,0,1,1307.679354840282,612.85) translate(36.325 17.9)"/></g><path d="M1020.76 520.62c0-5.53 4.48-10 10-10h180.65c5.54 0 10 4.47 10 10v20c0 5.52-4.46 10-10 10h-180.64c-5.52 0-10-4.48-10-10z" stroke="#000" stroke-width="4" fill="#83bbe5"/><g><use xlink:href="#ao" transform="matrix(1,0,0,1,1025.7646466222504,515.6162604010108) translate(7.125 18.15)"/></g><path d="M1465.68 626.6h35.82" stroke="#000" stroke-width="2" fill="none"/><path d="M1465.7 627.6h-1.02v-2h1.02z"/><path d="M1516.76 626.6l-14.26 4.64v-9.28z" stroke="#000" stroke-width="2"/><path d="M1897.32 250c0-5.52 4.48-10 10-10h140c5.52 0 10 4.48 10 10v33.2c0 5.52-4.48 10-10 10h-140c-5.52 0-10-4.48-10-10z" stroke="#000" stroke-width="4" fill="#0c7cba"/><g><use xlink:href="#ap" transform="matrix(1,0,0,1,1902.320645159718,245.00000000000003) translate(46.05 25.4)"/></g><path d="M1897.32 330c0-5.52 4.48-10 10-10h140c5.52 0 10 4.48 10 10v33.2c0 5.52-4.48 10-10 10h-140c-5.52 0-10-4.48-10-10z" stroke="#000" stroke-width="4" fill="#0c7cba"/><g><use xlink:href="#aq" transform="matrix(1,0,0,1,1902.320645159718,325) translate(42.025 25.4)"/></g><path d="M1897.32 410c0-5.52 4.48-10 10-10h140c5.52 0 10 4.48 10 10v33.2c0 5.52-4.48 10-10 10h-140c-5.52 0-10-4.48-10-10z" stroke="#000" stroke-width="4" fill="#0c7cba"/><g><use xlink:href="#ar" transform="matrix(1,0,0,1,1902.320645159718,405) translate(23.549999999999997 14.4)"/><use xlink:href="#as" transform="matrix(1,0,0,1,1902.320645159718,405) translate(50 36)"/></g><path d="M1897.32 490c0-5.52 4.48-10 10-10h140c5.52 0 10 4.48 10 10v33.2c0 5.52-4.48 10-10 10h-140c-5.52 0-10-4.48-10-10z" stroke="#000" stroke-width="4" fill="#0c7cba"/><g><use xlink:href="#at" transform="matrix(1,0,0,1,1902.320645159718,485) translate(14.024999999999999 14.4)"/><use xlink:href="#au" transform="matrix(1,0,0,1,1902.320645159718,485) translate(73.025 14.4)"/><use xlink:href="#av" transform="matrix(1,0,0,1,1902.320645159718,485) translate(9.074999999999989 36)"/><use xlink:href="#aw" transform="matrix(1,0,0,1,1902.320645159718,485) translate(58.07499999999999 36)"/></g><path d="M1897.32 570c0-5.52 4.48-10 10-10h140c5.52 0 10 4.48 10 10v33.2c0 5.52-4.48 10-10 10h-140c-5.52 0-10-4.48-10-10z" stroke="#000" stroke-width="4" fill="#0c7cba"/><g><use xlink:href="#ax" transform="matrix(1,0,0,1,1902.320645159718,565) translate(30.074999999999996 14.4)"/><use xlink:href="#ay" transform="matrix(1,0,0,1,1902.320645159718,565) translate(58.025 14.4)"/><use xlink:href="#az" transform="matrix(1,0,0,1,1902.320645159718,565) translate(40.025 36)"/></g><path d="M1897.32 658.7c0-5.52 4.48-10 10-10h140c5.52 0 10 4.48 10 10v54.8c0 5.52-4.48 10-10 10h-140c-5.52 0-10-4.48-10-10z" stroke="#000" stroke-width="4" fill="#0c7cba"/><g><use xlink:href="#aA" transform="matrix(1,0,0,1,1902.320645159718,653.6999999999999) translate(55.525 14.4)"/><use xlink:href="#aB" transform="matrix(1,0,0,1,1902.320645159718,653.6999999999999) translate(3.5999999999999943 36)"/><use xlink:href="#aC" transform="matrix(1,0,0,1,1902.320645159718,653.6999999999999) translate(71.55 36)"/><use xlink:href="#aD" transform="matrix(1,0,0,1,1902.320645159718,653.6999999999999) translate(117.4 36)"/><use xlink:href="#aE" transform="matrix(1,0,0,1,1902.320645159718,653.6999999999999) translate(53.525 57.6)"/></g><path d="M1897.32 769c0-5.52 4.48-10 10-10h140c5.52 0 10 4.48 10 10v33.2c0 5.52-4.48 10-10 10h-140c-5.52 0-10-4.48-10-10z" stroke="#000" stroke-width="4" fill="#0c7cba"/><g><use xlink:href="#aF" transform="matrix(1,0,0,1,1902.320645159718,763.9999999999994) translate(14.875 25.4)"/><use xlink:href="#aG" transform="matrix(1,0,0,1,1902.320645159718,763.9999999999994) translate(79.125 25.4)"/></g><path d="M2528 119.37c17.67 0 32 13.43 32 30 0 16.56-14.33 30-32 30h-96c-17.67 0-32-13.44-32-30 0-16.57 14.33-30 32-30z" stroke="#000" stroke-width="6" fill="#de5f85"/><g><use xlink:href="#aH" transform="matrix(1,0,0,1,2405,124.36626040101078) translate(35 30.025)"/></g><path d="M2440 219.37c0-5.53 4.48-10 10-10h60c5.52 0 10 4.47 10 10v33.2c0 5.52-4.48 10-10 10h-60c-5.52 0-10-4.48-10-10z" stroke="#000" stroke-width="4" fill="#0c7cba"/><g><use xlink:href="#aI" transform="matrix(1,0,0,1,2445,214.36626040101083) translate(9.524999999999999 25.4)"/></g><path d="M2440 302.57c0-5.53 4.48-10 10-10h60c5.52 0 10 4.47 10 10v33.2c0 5.52-4.48 10-10 10h-60c-5.52 0-10-4.48-10-10z" stroke="#000" stroke-width="4" fill="#0c7cba"/><g><use xlink:href="#aJ" transform="matrix(1,0,0,1,2445,297.5662604010109) translate(10 25.4)"/></g><path d="M2288 119.37c17.67 0 32 13.43 32 30 0 16.56-14.33 30-32 30h-96c-17.67 0-32-13.44-32-30 0-16.57 14.33-30 32-30z" stroke="#000" stroke-width="6" fill="#de5f85"/><g><use xlink:href="#aK" transform="matrix(1,0,0,1,2165,124.36626040101083) translate(32.074999999999996 30.025)"/><use xlink:href="#aL" transform="matrix(1,0,0,1,2165,124.36626040101083) translate(97.92500000000001 30.025)"/></g><path d="M2160 212.77c0-5.53 4.48-10 10-10h140c5.52 0 10 4.47 10 10v33.2c0 5.52-4.48 10-10 10h-140c-5.52 0-10-4.48-10-10z" stroke="#000" stroke-width="4" fill="#0c7cba"/><g><use xlink:href="#aM" transform="matrix(1,0,0,1,2165,207.7662604010109) translate(32.599999999999994 14.4)"/><use xlink:href="#aN" transform="matrix(1,0,0,1,2165,207.7662604010109) translate(1.75 36)"/><use xlink:href="#aO" transform="matrix(1,0,0,1,2165,207.7662604010109) translate(80.9 36)"/><use xlink:href="#aP" transform="matrix(1,0,0,1,2165,207.7662604010109) translate(123.25 36)"/></g><path d="M2160 302.57c0-5.53 4.48-10 10-10h140c5.52 0 10 4.47 10 10v33.2c0 5.52-4.48 10-10 10h-140c-5.52 0-10-4.48-10-10z" stroke="#000" stroke-width="4" fill="#0c7cba"/><g><use xlink:href="#aQ" transform="matrix(1,0,0,1,2165,297.56626040101094) translate(3.5749999999999886 25.4)"/><use xlink:href="#aR" transform="matrix(1,0,0,1,2165,297.56626040101094) translate(44.474999999999994 25.4)"/><use xlink:href="#aS" transform="matrix(1,0,0,1,2165,297.56626040101094) translate(99.425 25.4)"/></g><path d="M2160 399.2c0-5.52 4.48-10 10-10h140c5.52 0 10 4.48 10 10V454c0 5.52-4.48 10-10 10h-140c-5.52 0-10-4.48-10-10z" stroke="#000" stroke-width="4" fill="#0c7cba"/><g><use xlink:href="#aT" transform="matrix(1,0,0,1,2165,394.2000000000001) translate(47.574999999999996 14.4)"/><use xlink:href="#aU" transform="matrix(1,0,0,1,2165,394.2000000000001) translate(8.074999999999989 36)"/><use xlink:href="#aV" transform="matrix(1,0,0,1,2165,394.2000000000001) translate(92.925 36)"/><use xlink:href="#aW" transform="matrix(1,0,0,1,2165,394.2000000000001) translate(29.574999999999996 57.6)"/><use xlink:href="#aX" transform="matrix(1,0,0,1,2165,394.2000000000001) translate(72.475 57.6)"/></g><path d="M2160 503.22c0-5.53 4.48-10 10-10h140c5.52 0 10 4.47 10 10v54.8c0 5.52-4.48 10-10 10h-140c-5.52 0-10-4.48-10-10z" stroke="#000" stroke-width="4" fill="#0c7cba"/><g><use xlink:href="#aY" transform="matrix(1,0,0,1,2165,498.2162604010108) translate(39.5 36.74375)"/><use xlink:href="#aZ" transform="matrix(1,0,0,1,2165,498.2162604010108) translate(100.5 36.74375)"/></g><defs><path d="M197 0v-115H63V0H30v-248h33v105h134v-105h34V0h-34" id="ba"/><path d="M100-194c62-1 85 37 85 99 1 63-27 99-86 99S16-35 15-95c0-66 28-99 85-99zM99-20c44 1 53-31 53-75 0-43-8-75-51-75s-53 32-53 75 10 74 51 75" id="bb"/><path d="M206 0h-36l-40-164L89 0H53L-1-190h32L70-26l43-164h34l41 164 42-164h31" id="bc"/><g id="a"><use transform="matrix(0.05,0,0,0.05,0,0)" xlink:href="#ba"/><use transform="matrix(0.05,0,0,0.05,12.950000000000001,0)" xlink:href="#bb"/><use transform="matrix(0.05,0,0,0.05,22.950000000000003,0)" xlink:href="#bc"/></g><path d="M59-47c-2 24 18 29 38 22v24C64 9 27 4 27-40v-127H5v-23h24l9-43h21v43h35v23H59v120" id="bd"/><g id="b"><use transform="matrix(0.05,0,0,0.05,0,0)" xlink:href="#bd"/><use transform="matrix(0.05,0,0,0.05,5,0)" xlink:href="#bb"/></g><path d="M24 0v-261h32V0H24" id="be"/><path d="M100-194c63 0 86 42 84 106H49c0 40 14 67 53 68 26 1 43-12 49-29l28 8c-11 28-37 45-77 45C44 4 14-33 15-96c1-61 26-98 85-98zm52 81c6-60-76-77-97-28-3 7-6 17-6 28h103" id="bf"/><path d="M141-36C126-15 110 5 73 4 37 3 15-17 15-53c-1-64 63-63 125-63 3-35-9-54-41-54-24 1-41 7-42 31l-33-3c5-37 33-52 76-52 45 0 72 20 72 64v82c-1 20 7 32 28 27v20c-31 9-61-2-59-35zM48-53c0 20 12 33 32 33 41-3 63-29 60-74-43 2-92-5-92 41" id="bg"/><path d="M114-163C36-179 61-72 57 0H25l-1-190h30c1 12-1 29 2 39 6-27 23-49 58-41v29" id="bh"/><path d="M117-194c89-4 53 116 60 194h-32v-121c0-31-8-49-39-48C34-167 62-67 57 0H25l-1-190h30c1 10-1 24 2 32 11-22 29-35 61-36" id="bi"/><g id="c"><use transform="matrix(0.05,0,0,0.05,0,0)" xlink:href="#be"/><use transform="matrix(0.05,0,0,0.05,3.95,0)" xlink:href="#bf"/><use transform="matrix(0.05,0,0,0.05,13.949999999999998,0)" xlink:href="#bg"/><use transform="matrix(0.05,0,0,0.05,23.95,0)" xlink:href="#bh"/><use transform="matrix(0.05,0,0,0.05,29.899999999999995,0)" xlink:href="#bi"/></g><path d="M84 4C-5 8 30-112 23-190h32v120c0 31 7 50 39 49 72-2 45-101 50-169h31l1 190h-30c-1-10 1-25-2-33-11 22-28 36-60 37" id="bj"/><path d="M85-194c31 0 48 13 60 33l-1-100h32l1 261h-30c-2-10 0-23-3-31C134-8 116 4 85 4 32 4 16-35 15-94c0-66 23-100 70-100zm9 24c-40 0-46 34-46 75 0 40 6 74 45 74 42 0 51-32 51-76 0-42-9-74-50-73" id="bk"/><path d="M24-231v-30h32v30H24zM24 0v-190h32V0H24" id="bl"/><g id="d"><use transform="matrix(0.05,0,0,0.05,0,0)" xlink:href="#ba"/><use transform="matrix(0.05,0,0,0.05,12.950000000000001,0)" xlink:href="#bb"/><use transform="matrix(0.05,0,0,0.05,22.950000000000003,0)" xlink:href="#bj"/><use transform="matrix(0.05,0,0,0.05,32.95,0)" xlink:href="#bk"/><use transform="matrix(0.05,0,0,0.05,42.95,0)" xlink:href="#bl"/><use transform="matrix(0.05,0,0,0.05,46.900000000000006,0)" xlink:href="#bi"/><use transform="matrix(0.05,0,0,0.05,56.900000000000006,0)" xlink:href="#bl"/></g><path d="M185-189c-5-48-123-54-124 2 14 75 158 14 163 119 3 78-121 87-175 55-17-10-28-26-33-46l33-7c5 56 141 63 141-1 0-78-155-14-162-118-5-82 145-84 179-34 5 7 8 16 11 25" id="bm"/><path d="M177-190C167-65 218 103 67 71c-23-6-38-20-44-43l32-5c15 47 100 32 89-28v-30C133-14 115 1 83 1 29 1 15-40 15-95c0-56 16-97 71-98 29-1 48 16 59 35 1-10 0-23 2-32h30zM94-22c36 0 50-32 50-73 0-42-14-75-50-75-39 0-46 34-46 75s6 73 46 73" id="bn"/><path d="M179-190L93 31C79 59 56 82 12 73V49c39 6 53-20 64-50L1-190h34L92-34l54-156h33" id="bo"/><g id="e"><use transform="matrix(0.05,0,0,0.05,0,0)" xlink:href="#bm"/><use transform="matrix(0.05,0,0,0.05,12,0)" xlink:href="#bd"/><use transform="matrix(0.05,0,0,0.05,17,0)" xlink:href="#bh"/><use transform="matrix(0.05,0,0,0.05,22.95,0)" xlink:href="#bg"/><use transform="matrix(0.05,0,0,0.05,32.95,0)" xlink:href="#bd"/><use transform="matrix(0.05,0,0,0.05,37.95,0)" xlink:href="#bf"/><use transform="matrix(0.05,0,0,0.05,47.95,0)" xlink:href="#bn"/><use transform="matrix(0.05,0,0,0.05,57.95,0)" xlink:href="#bo"/></g><path fill="#fff" d="M266 0h-40l-56-210L115 0H75L2-248h35L96-30l15-64 43-154h32l59 218 59-218h35" id="bp"/><path fill="#fff" d="M106-169C34-169 62-67 57 0H25v-261h32l-1 103c12-21 28-36 61-36 89 0 53 116 60 194h-32v-121c2-32-8-49-39-48" id="bq"/><path fill="#fff" d="M141-36C126-15 110 5 73 4 37 3 15-17 15-53c-1-64 63-63 125-63 3-35-9-54-41-54-24 1-41 7-42 31l-33-3c5-37 33-52 76-52 45 0 72 20 72 64v82c-1 20 7 32 28 27v20c-31 9-61-2-59-35zM48-53c0 20 12 33 32 33 41-3 63-29 60-74-43 2-92-5-92 41" id="br"/><path fill="#fff" d="M59-47c-2 24 18 29 38 22v24C64 9 27 4 27-40v-127H5v-23h24l9-43h21v43h35v23H59v120" id="bs"/><g id="f"><use transform="matrix(0.05,0,0,0.05,0,0)" xlink:href="#bp"/><use transform="matrix(0.05,0,0,0.05,16.95,0)" xlink:href="#bq"/><use transform="matrix(0.05,0,0,0.05,26.950000000000003,0)" xlink:href="#br"/><use transform="matrix(0.05,0,0,0.05,36.95,0)" xlink:href="#bs"/></g><path fill="#fff" d="M96-169c-40 0-48 33-48 73s9 75 48 75c24 0 41-14 43-38l32 2c-6 37-31 61-74 61-59 0-76-41-82-99-10-93 101-131 147-64 4 7 5 14 7 22l-32 3c-4-21-16-35-41-35" id="bt"/><path fill="#fff" d="M117-194c89-4 53 116 60 194h-32v-121c0-31-8-49-39-48C34-167 62-67 57 0H25l-1-190h30c1 10-1 24 2 32 11-22 29-35 61-36" id="bu"/><g id="g"><use transform="matrix(0.05,0,0,0.05,0,0)" xlink:href="#bt"/><use transform="matrix(0.05,0,0,0.05,9,0)" xlink:href="#br"/><use transform="matrix(0.05,0,0,0.05,19,0)" xlink:href="#bu"/></g><path fill="#fff" d="M24-231v-30h32v30H24zM24 0v-190h32V0H24" id="bv"/><g id="h"><use transform="matrix(0.05,0,0,0.05,0,0)" xlink:href="#bv"/><use transform="matrix(0.05,0,0,0.05,3.95,0)" xlink:href="#bs"/></g><path fill="#fff" d="M85-194c31 0 48 13 60 33l-1-100h32l1 261h-30c-2-10 0-23-3-31C134-8 116 4 85 4 32 4 16-35 15-94c0-66 23-100 70-100zm9 24c-40 0-46 34-46 75 0 40 6 74 45 74 42 0 51-32 51-76 0-42-9-74-50-73" id="bw"/><path fill="#fff" d="M100-194c62-1 85 37 85 99 1 63-27 99-86 99S16-35 15-95c0-66 28-99 85-99zM99-20c44 1 53-31 53-75 0-43-8-75-51-75s-53 32-53 75 10 74 51 75" id="bx"/><path fill="#fff" d="M103-251c84 0 111 97 45 133-19 10-37 24-39 52H78c0-63 77-55 77-114 0-30-21-42-52-43-32 0-53 17-56 46l-32-2c7-45 34-72 88-72zM77 0v-35h34V0H77" id="by"/><g id="i"><use transform="matrix(0.05,0,0,0.05,0,0)" xlink:href="#bw"/><use transform="matrix(0.05,0,0,0.05,10,0)" xlink:href="#bx"/><use transform="matrix(0.05,0,0,0.05,20,0)" xlink:href="#by"/></g><path d="M30-248c87 1 191-15 191 75 0 78-77 80-158 76V0H30v-248zm33 125c57 0 124 11 124-50 0-59-68-47-124-48v98" id="bz"/><path d="M96-169c-40 0-48 33-48 73s9 75 48 75c24 0 41-14 43-38l32 2c-6 37-31 61-74 61-59 0-76-41-82-99-10-93 101-131 147-64 4 7 5 14 7 22l-32 3c-4-21-16-35-41-35" id="bA"/><g id="j"><use transform="matrix(0.05,0,0,0.05,0,0)" xlink:href="#bz"/><use transform="matrix(0.05,0,0,0.05,12,0)" xlink:href="#bh"/><use transform="matrix(0.05,0,0,0.05,17.95,0)" xlink:href="#bb"/><use transform="matrix(0.05,0,0,0.05,27.950000000000003,0)" xlink:href="#bA"/><use transform="matrix(0.05,0,0,0.05,36.95,0)" xlink:href="#bf"/><use transform="matrix(0.05,0,0,0.05,46.95,0)" xlink:href="#bk"/><use transform="matrix(0.05,0,0,0.05,56.95,0)" xlink:href="#bj"/><use transform="matrix(0.05,0,0,0.05,66.95,0)" xlink:href="#bh"/><use transform="matrix(0.05,0,0,0.05,72.9,0)" xlink:href="#bg"/><use transform="matrix(0.05,0,0,0.05,82.9,0)" xlink:href="#be"/></g><path d="M140-251c81 0 123 46 123 126C263-46 219 4 140 4 59 4 17-45 17-125s42-126 123-126zm0 227c63 0 89-41 89-101s-29-99-89-99c-61 0-89 39-89 99S79-25 140-24" id="bB"/><path d="M115-194c55 1 70 41 70 98S169 2 115 4C84 4 66-9 55-30l1 105H24l-1-265h31l2 30c10-21 28-34 59-34zm-8 174c40 0 45-34 45-75s-6-73-45-74c-42 0-51 32-51 76 0 43 10 73 51 73" id="bC"/><path d="M135-143c-3-34-86-38-87 0 15 53 115 12 119 90S17 21 10-45l28-5c4 36 97 45 98 0-10-56-113-15-118-90-4-57 82-63 122-42 12 7 21 19 24 35" id="bD"/><g id="k"><use transform="matrix(0.05,0,0,0.05,0,0)" xlink:href="#bB"/><use transform="matrix(0.05,0,0,0.05,14,0)" xlink:href="#bC"/><use transform="matrix(0.05,0,0,0.05,24,0)" xlink:href="#bf"/><use transform="matrix(0.05,0,0,0.05,34,0)" xlink:href="#bh"/><use transform="matrix(0.05,0,0,0.05,39.95,0)" xlink:href="#bg"/><use transform="matrix(0.05,0,0,0.05,49.95,0)" xlink:href="#bd"/><use transform="matrix(0.05,0,0,0.05,54.95,0)" xlink:href="#bl"/><use transform="matrix(0.05,0,0,0.05,58.900000000000006,0)" xlink:href="#bb"/><use transform="matrix(0.05,0,0,0.05,68.9,0)" xlink:href="#bi"/><use transform="matrix(0.05,0,0,0.05,78.9,0)" xlink:href="#bD"/></g><g id="l"><use transform="matrix(0.05,0,0,0.05,0,0)" xlink:href="#bB"/><use transform="matrix(0.05,0,0,0.05,14,0)" xlink:href="#bC"/><use transform="matrix(0.05,0,0,0.05,24,0)" xlink:href="#bf"/><use transform="matrix(0.05,0,0,0.05,34,0)" xlink:href="#bh"/><use transform="matrix(0.05,0,0,0.05,39.95,0)" xlink:href="#bg"/><use transform="matrix(0.05,0,0,0.05,49.95,0)" xlink:href="#bd"/><use transform="matrix(0.05,0,0,0.05,54.95,0)" xlink:href="#bl"/><use transform="matrix(0.05,0,0,0.05,58.900000000000006,0)" xlink:href="#bb"/><use transform="matrix(0.05,0,0,0.05,68.9,0)" xlink:href="#bi"/><use transform="matrix(0.05,0,0,0.05,78.9,0)" xlink:href="#bD"/></g><path fill="#fff" d="M119 0H84L31-248h34l41 218 126-218h36" id="bE"/><path fill="#fff" d="M50-231l6-30h32l-6 30H50zM6 0l37-190h31L37 0H6" id="bF"/><path fill="#fff" d="M133-28C103 26-5 8 13-77c13-62 24-115 90-117 29-1 46 15 56 35l19-102h32L160 0h-30zM45-64c-2 27 10 43 35 43 54-1 69-50 69-103 0-29-15-46-42-46-53-1-58 58-62 106" id="bG"/><path fill="#fff" d="M111-194c62-3 86 47 72 106H45c-7 38 6 69 45 68 27-1 43-14 53-32l24 11C152-15 129 4 87 4 38 3 12-23 12-71c0-70 32-119 99-123zm44 81c14-66-71-72-95-28-4 8-8 17-11 28h106" id="bH"/><path fill="#fff" d="M30-147c31-64 166-65 159 27C183-49 158 1 86 4 9 8 1-88 30-147zM88-20c53 0 68-48 68-100 0-31-11-51-44-50-52 1-68 46-68 97 0 32 13 53 44 53" id="bI"/><path fill="#fff" d="M55-144c13 50 104 24 104 88C159 21 15 23 1-39l26-10c6 40 102 42 102-4-13-50-104-23-104-87 0-71 143-71 148-8l-29 4c-5-35-85-37-89 0" id="bJ"/><g id="m"><use transform="matrix(0.05,0,0,0.05,0,0)" xlink:href="#bE"/><use transform="matrix(0.05,0,0,0.05,11.65,0)" xlink:href="#bF"/><use transform="matrix(0.05,0,0,0.05,15.600000000000001,0)" xlink:href="#bG"/><use transform="matrix(0.05,0,0,0.05,25.6,0)" xlink:href="#bH"/><use transform="matrix(0.05,0,0,0.05,35.6,0)" xlink:href="#bI"/><use transform="matrix(0.05,0,0,0.05,45.6,0)" xlink:href="#bJ"/></g><path fill="#fff" d="M30 0v-248h33v221h125V0H30" id="bK"/><path fill="#fff" d="M100-194c63 0 86 42 84 106H49c0 40 14 67 53 68 26 1 43-12 49-29l28 8c-11 28-37 45-77 45C44 4 14-33 15-96c1-61 26-98 85-98zm52 81c6-60-76-77-97-28-3 7-6 17-6 28h103" id="bL"/><path fill="#fff" d="M114-163C36-179 61-72 57 0H25l-1-190h30c1 12-1 29 2 39 6-27 23-49 58-41v29" id="bM"/><path fill="#fff" d="M177-190C167-65 218 103 67 71c-23-6-38-20-44-43l32-5c15 47 100 32 89-28v-30C133-14 115 1 83 1 29 1 15-40 15-95c0-56 16-97 71-98 29-1 48 16 59 35 1-10 0-23 2-32h30zM94-22c36 0 50-32 50-73 0-42-14-75-50-75-39 0-46 34-46 75s6 73 46 73" id="bN"/><g id="n"><use transform="matrix(0.05,0,0,0.05,0,0)" xlink:href="#bK"/><use transform="matrix(0.05,0,0,0.05,10,0)" xlink:href="#bL"/><use transform="matrix(0.05,0,0,0.05,20,0)" xlink:href="#br"/><use transform="matrix(0.05,0,0,0.05,30,0)" xlink:href="#bM"/><use transform="matrix(0.05,0,0,0.05,35.95,0)" xlink:href="#bu"/><use transform="matrix(0.05,0,0,0.05,45.95,0)" xlink:href="#bv"/><use transform="matrix(0.05,0,0,0.05,49.900000000000006,0)" xlink:href="#bu"/><use transform="matrix(0.05,0,0,0.05,59.900000000000006,0)" xlink:href="#bN"/></g><path fill="#fff" d="M135-143c-3-34-86-38-87 0 15 53 115 12 119 90S17 21 10-45l28-5c4 36 97 45 98 0-10-56-113-15-118-90-4-57 82-63 122-42 12 7 21 19 24 35" id="bO"/><path fill="#fff" d="M84 4C-5 8 30-112 23-190h32v120c0 31 7 50 39 49 72-2 45-101 50-169h31l1 190h-30c-1-10 1-25-2-33-11 22-28 36-60 37" id="bP"/><g id="o"><use transform="matrix(0.05,0,0,0.05,0,0)" xlink:href="#bM"/><use transform="matrix(0.05,0,0,0.05,5.95,0)" xlink:href="#bL"/><use transform="matrix(0.05,0,0,0.05,15.949999999999998,0)" xlink:href="#bO"/><use transform="matrix(0.05,0,0,0.05,24.95,0)" xlink:href="#bx"/><use transform="matrix(0.05,0,0,0.05,34.95,0)" xlink:href="#bP"/><use transform="matrix(0.05,0,0,0.05,44.95,0)" xlink:href="#bM"/><use transform="matrix(0.05,0,0,0.05,50.900000000000006,0)" xlink:href="#bt"/><use transform="matrix(0.05,0,0,0.05,59.900000000000006,0)" xlink:href="#bL"/><use transform="matrix(0.05,0,0,0.05,69.9,0)" xlink:href="#bO"/></g><path fill="#fff" d="M52-101C46-14 166-7 216-51l9-45h-74l6-28h105l-18 87C217-12 181 4 130 4 60 4 18-31 18-101c0-106 78-167 188-146 30 6 48 27 59 54l-34 9c-10-26-31-41-67-40-75 1-107 50-112 123" id="bQ"/><path fill="#fff" d="M51-54c-9 22 5 41 31 30L79-1C43 14 10-4 19-52l22-115H19l5-23h22l19-43h21l-9 43h35l-4 23H73" id="bR"/><path fill="#fff" d="M179 0l23-115H67L45 0H11l48-248h34L72-143h135l21-105h32L212 0h-33" id="bS"/><path fill="#fff" d="M67 3c-93-2-31-127-26-193h32L48-50c-3 39 53 32 70 12 30-34 30-101 43-152h32L157 0h-30c1-10 6-24 4-33-14 20-29 37-64 36" id="bT"/><path fill="#fff" d="M68-162c25-46 127-43 121 31C183-60 169 1 98 4 69 5 53-11 43-31L36 0H5l52-261h31zm88 36c2-27-9-43-34-43-55 0-70 51-70 103 0 29 15 45 43 46 52 0 58-58 61-106" id="bU"/><g id="p"><use transform="matrix(0.05,0,0,0.05,0,0)" xlink:href="#bQ"/><use transform="matrix(0.05,0,0,0.05,14,0)" xlink:href="#bF"/><use transform="matrix(0.05,0,0,0.05,17.95,0)" xlink:href="#bR"/><use transform="matrix(0.05,0,0,0.05,22.95,0)" xlink:href="#bS"/><use transform="matrix(0.05,0,0,0.05,35.9,0)" xlink:href="#bT"/><use transform="matrix(0.05,0,0,0.05,45.9,0)" xlink:href="#bU"/></g><path fill="#fff" d="M66-151c12-25 30-51 66-40l-6 26C45-176 58-65 38 0H6l36-190h30" id="bV"/><path fill="#fff" d="M67-162c32-53 139-36 121 50C175-51 163 2 97 4 68 4 52-11 42-31 38 6 28 39 22 75H-9l50-265h29c-1 10 0 20-3 28zm89 36c0-26-10-43-35-43-54 0-67 50-69 103-1 29 14 45 42 46 53 0 62-58 62-106" id="bW"/><g id="q"><use transform="matrix(0.05,0,0,0.05,0,0)" xlink:href="#bV"/><use transform="matrix(0.05,0,0,0.05,5.95,0)" xlink:href="#bH"/><use transform="matrix(0.05,0,0,0.05,15.949999999999998,0)" xlink:href="#bW"/><use transform="matrix(0.05,0,0,0.05,25.950000000000003,0)" xlink:href="#bI"/><use transform="matrix(0.05,0,0,0.05,35.95,0)" xlink:href="#bJ"/></g><path fill="#fff" d="M11 0l48-248h184l-5 28H87l-15 79h140l-5 27H67L50-27h158l-5 27H11" id="bX"/><path fill="#fff" d="M67-158c22-48 132-52 116 29L158 0h-32l25-140c3-38-53-32-70-12C52-117 51-52 38 0H6l36-190h30" id="bY"/><path fill="#fff" d="M165-48c-4 18 1 34 23 27l-3 20c-29 8-62 0-52-35h-2C116-14 99 4 63 4 30 4 8-16 8-49c0-68 71-67 138-67 10-26 0-56-31-54-26 1-42 9-47 31l-32-5c8-67 160-71 144 15-5 28-9 54-15 81zM42-50c3 52 80 24 89-6 7-12 7-24 11-38-47 1-103-4-100 44" id="bZ"/><path fill="#fff" d="M103-194c29 0 47 14 56 36 2-11 5-23 8-32h30L160-5C157 61 82 97 21 62 9 55 4 45 1 30l28-7c7 42 83 31 92-3 4-16 9-38 13-55-13 20-29 36-62 36-40 0-60-25-60-64 0-71 23-131 91-131zm4 24c-53 0-58 54-61 104-2 27 10 44 36 44 49 0 65-50 67-102 1-29-15-46-42-46" id="ca"/><path fill="#fff" d="M248-111c6-24 9-61-24-58-72 9-57 108-77 169h-31l26-142c3-37-50-30-64-10C52-115 50-51 37 0H6l36-190h30c-1 10-6 24-4 32 13-43 101-52 105 5 13-22 29-41 61-41 90 0 28 129 23 194h-31" id="cb"/><g id="r"><use transform="matrix(0.05,0,0,0.05,0,0)" xlink:href="#bX"/><use transform="matrix(0.05,0,0,0.05,12,0)" xlink:href="#bY"/><use transform="matrix(0.05,0,0,0.05,22,0)" xlink:href="#bR"/><use transform="matrix(0.05,0,0,0.05,27,0)" xlink:href="#bZ"/><use transform="matrix(0.05,0,0,0.05,37,0)" xlink:href="#ca"/><use transform="matrix(0.05,0,0,0.05,47,0)" xlink:href="#cb"/><use transform="matrix(0.05,0,0,0.05,61.95,0)" xlink:href="#bZ"/></g><path fill="#fff" d="M20-101c0-91 52-143 145-150 126-9 127 168 53 223-23 17-55 32-93 32C57 4 20-33 20-101zm216-33c5-57-18-91-73-90-77 1-110 51-110 125 0 49 23 75 73 75 72-1 104-45 110-110" id="cc"/><path fill="#fff" d="M89 0H52L20-190h33L74-25l89-165h34" id="cd"/><path fill="#fff" d="M188 0h-37l-8-164L71 0H34L18-190h31l8 164 75-164h34l8 164 74-164h31" id="ce"/><g id="s"><use transform="matrix(0.05,0,0,0.05,0,0)" xlink:href="#cc"/><use transform="matrix(0.05,0,0,0.05,14,0)" xlink:href="#cd"/><use transform="matrix(0.05,0,0,0.05,23,0)" xlink:href="#bH"/><use transform="matrix(0.05,0,0,0.05,33,0)" xlink:href="#bV"/><use transform="matrix(0.05,0,0,0.05,38.95,0)" xlink:href="#cd"/><use transform="matrix(0.05,0,0,0.05,47.95,0)" xlink:href="#bF"/><use transform="matrix(0.05,0,0,0.05,51.900000000000006,0)" xlink:href="#bH"/><use transform="matrix(0.05,0,0,0.05,61.900000000000006,0)" xlink:href="#ce"/></g><g id="t"><use transform="matrix(0.05,0,0,0.05,0,0)" xlink:href="#cc"/><use transform="matrix(0.05,0,0,0.05,14,0)" xlink:href="#cd"/><use transform="matrix(0.05,0,0,0.05,23,0)" xlink:href="#bH"/><use transform="matrix(0.05,0,0,0.05,33,0)" xlink:href="#bV"/><use transform="matrix(0.05,0,0,0.05,38.95,0)" xlink:href="#cd"/><use transform="matrix(0.05,0,0,0.05,47.95,0)" xlink:href="#bF"/><use transform="matrix(0.05,0,0,0.05,51.900000000000006,0)" xlink:href="#bH"/><use transform="matrix(0.05,0,0,0.05,61.900000000000006,0)" xlink:href="#ce"/></g><g id="u"><use transform="matrix(0.05,0,0,0.05,0,0)" xlink:href="#bE"/><use transform="matrix(0.05,0,0,0.05,11.65,0)" xlink:href="#bF"/><use transform="matrix(0.05,0,0,0.05,15.600000000000001,0)" xlink:href="#bG"/><use transform="matrix(0.05,0,0,0.05,25.6,0)" xlink:href="#bH"/><use transform="matrix(0.05,0,0,0.05,35.6,0)" xlink:href="#bI"/><use transform="matrix(0.05,0,0,0.05,45.6,0)" xlink:href="#bJ"/></g><g id="v"><use transform="matrix(0.05,0,0,0.05,0,0)" xlink:href="#bS"/><use transform="matrix(0.05,0,0,0.05,12.950000000000001,0)" xlink:href="#bF"/><use transform="matrix(0.05,0,0,0.05,16.900000000000002,0)" xlink:href="#cd"/><use transform="matrix(0.05,0,0,0.05,25.900000000000002,0)" xlink:href="#bH"/></g><g id="w"><use transform="matrix(0.05,0,0,0.05,0,0)" xlink:href="#bs"/><use transform="matrix(0.05,0,0,0.05,5,0)" xlink:href="#bx"/></g><path fill="#fff" d="M24 0v-261h32V0H24" id="cf"/><g id="x"><use transform="matrix(0.05,0,0,0.05,0,0)" xlink:href="#cf"/><use transform="matrix(0.05,0,0,0.05,3.95,0)" xlink:href="#bL"/><use transform="matrix(0.05,0,0,0.05,13.949999999999998,0)" xlink:href="#br"/><use transform="matrix(0.05,0,0,0.05,23.95,0)" xlink:href="#bM"/><use transform="matrix(0.05,0,0,0.05,29.899999999999995,0)" xlink:href="#bu"/></g><path fill="#fff" d="M14 0l48-248h34L48 0H14" id="cg"/><path fill="#fff" d="M76-167L44 0H12l33-167H18l4-23h27c3-47 25-81 82-69l-4 24c-35-8-44 15-46 45h37l-5 23H76" id="ch"/><path fill="#fff" d="M44-68c0 29 11 47 38 47 30 0 42-19 51-41l28 9C148-21 126 4 82 4 31 4 10-29 12-85c3-77 74-140 146-93 12 8 15 23 18 40l-31 5c-1-22-13-36-36-36-52 0-65 49-65 101" id="ci"/><g id="y"><use transform="matrix(0.05,0,0,0.05,0,0)" xlink:href="#cg"/><use transform="matrix(0.05,0,0,0.05,5,0)" xlink:href="#bY"/><use transform="matrix(0.05,0,0,0.05,15,0)" xlink:href="#bR"/><use transform="matrix(0.05,0,0,0.05,20,0)" xlink:href="#bH"/><use transform="matrix(0.05,0,0,0.05,30,0)" xlink:href="#bV"/><use transform="matrix(0.05,0,0,0.05,35.95,0)" xlink:href="#ch"/><use transform="matrix(0.05,0,0,0.05,40.95,0)" xlink:href="#bZ"/><use transform="matrix(0.05,0,0,0.05,50.95,0)" xlink:href="#ci"/><use transform="matrix(0.05,0,0,0.05,59.95,0)" xlink:href="#bH"/></g><path fill="#fff" d="M247 0h-39l-15-214-24 57L95 0H56L31-248h35L82-30l101-218h33l16 218 101-218h35" id="cj"/><path fill="#fff" d="M127 0L80-88 50-66 37 0H6l51-261h31L57-100l99-90h39l-93 82L161 0h-34" id="ck"/><g id="z"><use transform="matrix(0.05,0,0,0.05,0,0)" xlink:href="#cj"/><use transform="matrix(0.05,0,0,0.05,16.95,0)" xlink:href="#bI"/><use transform="matrix(0.05,0,0,0.05,26.950000000000003,0)" xlink:href="#bV"/><use transform="matrix(0.05,0,0,0.05,32.9,0)" xlink:href="#ck"/><use transform="matrix(0.05,0,0,0.05,41.9,0)" xlink:href="#bF"/><use transform="matrix(0.05,0,0,0.05,45.85,0)" xlink:href="#bY"/><use transform="matrix(0.05,0,0,0.05,55.85,0)" xlink:href="#ca"/></g><path fill="#fff" d="M67-158c15-20 31-36 64-36 94 0 33 127 27 194h-32l25-140c3-38-53-32-70-12C52-117 51-51 37 0H6l51-261h31" id="cl"/><g id="A"><use transform="matrix(0.05,0,0,0.05,0,0)" xlink:href="#ce"/><use transform="matrix(0.05,0,0,0.05,12.950000000000001,0)" xlink:href="#bF"/><use transform="matrix(0.05,0,0,0.05,16.900000000000002,0)" xlink:href="#bR"/><use transform="matrix(0.05,0,0,0.05,21.900000000000002,0)" xlink:href="#cl"/></g><g id="B"><use transform="matrix(0.05,0,0,0.05,0,0)" xlink:href="#bY"/><use transform="matrix(0.05,0,0,0.05,10,0)" xlink:href="#bI"/><use transform="matrix(0.05,0,0,0.05,20,0)" xlink:href="#bG"/><use transform="matrix(0.05,0,0,0.05,30,0)" xlink:href="#bH"/><use transform="matrix(0.05,0,0,0.05,40,0)" xlink:href="#bJ"/></g><path fill="#fff" d="M176 0l-54-107L30 0H-7l115-131-60-117h35l48 97 83-97h37L146-129 211 0h-35" id="cm"/><g id="C"><use transform="matrix(0.05,0,0,0.05,0,0)" xlink:href="#bE"/><use transform="matrix(0.05,0,0,0.05,12,0)" xlink:href="#bX"/><use transform="matrix(0.05,0,0,0.05,24,0)" xlink:href="#cm"/></g><g id="D"><use transform="matrix(0.05,0,0,0.05,0,0)" xlink:href="#ci"/><use transform="matrix(0.05,0,0,0.05,9,0)" xlink:href="#bI"/><use transform="matrix(0.05,0,0,0.05,19,0)" xlink:href="#bG"/><use transform="matrix(0.05,0,0,0.05,29,0)" xlink:href="#bH"/></g><path fill="#fff" d="M124 0L87-78 21 0h-35l86-98-46-92h33l34 74 61-74h37l-83 92 50 98h-34" id="cn"/><path fill="#fff" d="M6 0l50-261h32L37 0H6" id="co"/><g id="E"><use transform="matrix(0.05,0,0,0.05,0,0)" xlink:href="#bX"/><use transform="matrix(0.05,0,0,0.05,12,0)" xlink:href="#cn"/><use transform="matrix(0.05,0,0,0.05,21,0)" xlink:href="#bZ"/><use transform="matrix(0.05,0,0,0.05,31,0)" xlink:href="#cb"/><use transform="matrix(0.05,0,0,0.05,45.95,0)" xlink:href="#bW"/><use transform="matrix(0.05,0,0,0.05,55.95,0)" xlink:href="#co"/><use transform="matrix(0.05,0,0,0.05,59.900000000000006,0)" xlink:href="#bH"/></g><g id="F"><use transform="matrix(0.05,0,0,0.05,0,0)" xlink:href="#ch"/><use transform="matrix(0.05,0,0,0.05,5,0)" xlink:href="#bF"/><use transform="matrix(0.05,0,0,0.05,8.95,0)" xlink:href="#co"/><use transform="matrix(0.05,0,0,0.05,12.899999999999999,0)" xlink:href="#bH"/><use transform="matrix(0.05,0,0,0.05,22.9,0)" xlink:href="#bJ"/></g><g id="G"><use transform="matrix(0.05,0,0,0.05,0,0)" xlink:href="#bJ"/><use transform="matrix(0.05,0,0,0.05,9,0)" xlink:href="#bY"/><use transform="matrix(0.05,0,0,0.05,19,0)" xlink:href="#bF"/><use transform="matrix(0.05,0,0,0.05,22.95,0)" xlink:href="#bW"/><use transform="matrix(0.05,0,0,0.05,32.95,0)" xlink:href="#bW"/><use transform="matrix(0.05,0,0,0.05,42.95,0)" xlink:href="#bH"/><use transform="matrix(0.05,0,0,0.05,52.95,0)" xlink:href="#bR"/><use transform="matrix(0.05,0,0,0.05,57.95,0)" xlink:href="#bJ"/></g><path fill="#fff" d="M11 0l48-248h34L50-27h125l-5 27H11" id="cp"/><g id="H"><use transform="matrix(0.05,0,0,0.05,0,0)" xlink:href="#cp"/><use transform="matrix(0.05,0,0,0.05,10,0)" xlink:href="#bF"/><use transform="matrix(0.05,0,0,0.05,13.949999999999998,0)" xlink:href="#bJ"/><use transform="matrix(0.05,0,0,0.05,22.95,0)" xlink:href="#bR"/></g><g id="I"><use transform="matrix(0.05,0,0,0.05,0,0)" xlink:href="#ce"/><use transform="matrix(0.05,0,0,0.05,12.950000000000001,0)" xlink:href="#cl"/><use transform="matrix(0.05,0,0,0.05,22.950000000000003,0)" xlink:href="#bF"/><use transform="matrix(0.05,0,0,0.05,26.900000000000002,0)" xlink:href="#ci"/><use transform="matrix(0.05,0,0,0.05,35.900000000000006,0)" xlink:href="#cl"/></g><g id="J"><use transform="matrix(0.05,0,0,0.05,0,0)" xlink:href="#bI"/><use transform="matrix(0.05,0,0,0.05,10,0)" xlink:href="#bY"/><use transform="matrix(0.05,0,0,0.05,20,0)" xlink:href="#bH"/><use transform="matrix(0.05,0,0,0.05,30,0)" xlink:href="#bJ"/></g><path fill="#fff" d="M222 0l43-216c-8 16-17 34-26 49L143 0h-22L81-216 41 0H11l48-248h42l38 208 116-208h45L252 0h-30" id="cq"/><g id="K"><use transform="matrix(0.05,0,0,0.05,0,0)" xlink:href="#cq"/><use transform="matrix(0.05,0,0,0.05,14.950000000000001,0)" xlink:href="#bZ"/><use transform="matrix(0.05,0,0,0.05,24.950000000000003,0)" xlink:href="#ck"/><use transform="matrix(0.05,0,0,0.05,33.95,0)" xlink:href="#bH"/></g><path fill="#fff" d="M198-190L69 30C53 58 25 83-20 72c4-11-1-27 19-22 33-1 43-29 59-52L20-190h32L79-34l84-156h35" id="cr"/><g id="L"><use transform="matrix(0.05,0,0,0.05,0,0)" xlink:href="#cb"/><use transform="matrix(0.05,0,0,0.05,14.950000000000001,0)" xlink:href="#cr"/></g><g id="M"><use transform="matrix(0.05,0,0,0.05,0,0)" xlink:href="#bI"/><use transform="matrix(0.05,0,0,0.05,10,0)" xlink:href="#ce"/><use transform="matrix(0.05,0,0,0.05,22.950000000000003,0)" xlink:href="#bY"/></g><g id="N"><use transform="matrix(0.05,0,0,0.05,0,0)" xlink:href="#bI"/><use transform="matrix(0.05,0,0,0.05,10,0)" xlink:href="#bV"/><use transform="matrix(0.05,0,0,0.05,15.949999999999998,0)" xlink:href="#bG"/><use transform="matrix(0.05,0,0,0.05,25.950000000000003,0)" xlink:href="#bH"/><use transform="matrix(0.05,0,0,0.05,35.95,0)" xlink:href="#bV"/><use transform="matrix(0.05,0,0,0.05,41.900000000000006,0)" xlink:href="#bH"/><use transform="matrix(0.05,0,0,0.05,51.900000000000006,0)" xlink:href="#bG"/></g><g id="O"><use transform="matrix(0.05,0,0,0.05,0,0)" xlink:href="#co"/><use transform="matrix(0.05,0,0,0.05,3.95,0)" xlink:href="#bF"/><use transform="matrix(0.05,0,0,0.05,7.9,0)" xlink:href="#bJ"/><use transform="matrix(0.05,0,0,0.05,16.9,0)" xlink:href="#bR"/></g><g id="P"><use transform="matrix(0.05,0,0,0.05,0,0)" xlink:href="#bK"/><use transform="matrix(0.05,0,0,0.05,10,0)" xlink:href="#br"/><use transform="matrix(0.05,0,0,0.05,20,0)" xlink:href="#bs"/><use transform="matrix(0.05,0,0,0.05,25,0)" xlink:href="#bL"/><use transform="matrix(0.05,0,0,0.05,35,0)" xlink:href="#bO"/><use transform="matrix(0.05,0,0,0.05,44,0)" xlink:href="#bs"/></g><path fill="#fff" d="M63-220v92h138v28H63V0H30v-248h175v28H63" id="cs"/><g id="Q"><use transform="matrix(0.05,0,0,0.05,0,0)" xlink:href="#cs"/><use transform="matrix(0.05,0,0,0.05,10.950000000000001,0)" xlink:href="#bL"/><use transform="matrix(0.05,0,0,0.05,20.950000000000003,0)" xlink:href="#br"/><use transform="matrix(0.05,0,0,0.05,30.950000000000003,0)" xlink:href="#bs"/><use transform="matrix(0.05,0,0,0.05,35.95,0)" xlink:href="#bP"/><use transform="matrix(0.05,0,0,0.05,45.95,0)" xlink:href="#bM"/><use transform="matrix(0.05,0,0,0.05,51.900000000000006,0)" xlink:href="#bL"/><use transform="matrix(0.05,0,0,0.05,61.900000000000006,0)" xlink:href="#bO"/></g><path fill="#fff" d="M0 4l72-265h28L28 4H0" id="ct"/><use transform="matrix(0.05,0,0,0.05,0,0)" xlink:href="#ct" id="R"/><path fill="#fff" d="M33 0v-248h34V0H33" id="cu"/><g id="S"><use transform="matrix(0.05,0,0,0.05,0,0)" xlink:href="#cu"/><use transform="matrix(0.05,0,0,0.05,5,0)" xlink:href="#bu"/><use transform="matrix(0.05,0,0,0.05,15,0)" xlink:href="#bs"/><use transform="matrix(0.05,0,0,0.05,20,0)" xlink:href="#bL"/><use transform="matrix(0.05,0,0,0.05,30,0)" xlink:href="#bN"/><use transform="matrix(0.05,0,0,0.05,40,0)" xlink:href="#bM"/><use transform="matrix(0.05,0,0,0.05,45.95,0)" xlink:href="#br"/><use transform="matrix(0.05,0,0,0.05,55.95,0)" xlink:href="#bs"/><use transform="matrix(0.05,0,0,0.05,60.95,0)" xlink:href="#bv"/><use transform="matrix(0.05,0,0,0.05,64.9,0)" xlink:href="#bx"/><use transform="matrix(0.05,0,0,0.05,74.9,0)" xlink:href="#bu"/><use transform="matrix(0.05,0,0,0.05,84.9,0)" xlink:href="#bO"/></g><path fill="#fff" d="M194-120c59 52 2 134-86 124-53-6-90-18-98-63l31-7c8 30 29 43 70 43 46 0 84-17 71-62-32-43-135-20-137-98-3-89 178-90 191-16l-30 9c-8-48-127-53-127 5 0 53 81 35 115 65" id="cv"/><g id="T"><use transform="matrix(0.05,0,0,0.05,0,0)" xlink:href="#cv"/><use transform="matrix(0.05,0,0,0.05,12,0)" xlink:href="#bT"/><use transform="matrix(0.05,0,0,0.05,22,0)" xlink:href="#bU"/><use transform="matrix(0.05,0,0,0.05,32,0)" xlink:href="#bJ"/><use transform="matrix(0.05,0,0,0.05,41,0)" xlink:href="#bR"/><use transform="matrix(0.05,0,0,0.05,46,0)" xlink:href="#bZ"/><use transform="matrix(0.05,0,0,0.05,56,0)" xlink:href="#bY"/><use transform="matrix(0.05,0,0,0.05,66,0)" xlink:href="#ci"/><use transform="matrix(0.05,0,0,0.05,75,0)" xlink:href="#bH"/></g><path fill="#fff" d="M123-251c66 0 92 69 53 113C138-94 73-75 39-27h128l-5 27H-2c17-92 123-93 159-163 14-28-1-64-36-62-29 2-46 17-54 41l-30-6c13-36 37-61 86-61" id="cw"/><g id="U"><use transform="matrix(0.05,0,0,0.05,0,0)" xlink:href="#bE"/><use transform="matrix(0.05,0,0,0.05,12,0)" xlink:href="#cw"/></g><g id="V"><use transform="matrix(0.05,0,0,0.05,0,0)" xlink:href="#bW"/><use transform="matrix(0.05,0,0,0.05,10,0)" xlink:href="#co"/><use transform="matrix(0.05,0,0,0.05,13.949999999999998,0)" xlink:href="#bT"/><use transform="matrix(0.05,0,0,0.05,23.95,0)" xlink:href="#ca"/><use transform="matrix(0.05,0,0,0.05,33.95,0)" xlink:href="#bF"/><use transform="matrix(0.05,0,0,0.05,37.900000000000006,0)" xlink:href="#bY"/></g><path fill="#fff" d="M16-82c0-90 25-169 113-169 48 0 68 33 68 82C197-79 170 4 84 4 37 4 16-31 16-82zm30 5c0 32 11 55 40 55 69 0 76-79 80-149 2-32-10-55-39-55-69 0-81 81-81 149" id="cx"/><path fill="#fff" d="M9 0l6-27h63l36-188-63 39 6-31 66-41h29L110-27h60l-5 27H9" id="cy"/><path fill="#fff" d="M40-53c7 41 73 38 88 5 14-18 25-43 30-72-13 20-31 35-60 35-44 0-69-27-69-70 0-57 32-96 91-96 58 0 76 44 72 106C186-56 125 37 35-9c-12-6-19-20-23-36zm62-57c67 0 87-116 17-116-39 0-58 29-58 71 1 27 12 45 41 45" id="cz"/><g id="W"><use transform="matrix(0.05,0,0,0.05,0,0)" xlink:href="#cw"/><use transform="matrix(0.05,0,0,0.05,10,0)" xlink:href="#cx"/><use transform="matrix(0.05,0,0,0.05,20,0)" xlink:href="#cy"/><use transform="matrix(0.05,0,0,0.05,30,0)" xlink:href="#cz"/><use transform="matrix(0.05,0,0,0.05,40,0)" xlink:href="#bZ"/><use transform="matrix(0.05,0,0,0.05,50,0)" xlink:href="#bT"/><use transform="matrix(0.05,0,0,0.05,60,0)" xlink:href="#ca"/></g><path fill="#fff" d="M249-183c0 48-29 72-75 77L221 0h-36l-43-103H65L45 0H11l48-248c83 2 190-17 190 65zm-34 3c0-55-74-39-127-41l-18 92c63-1 145 13 145-51" id="cA"/><g id="X"><use transform="matrix(0.05,0,0,0.05,0,0)" xlink:href="#cA"/><use transform="matrix(0.05,0,0,0.05,12.950000000000001,0)" xlink:href="#bH"/><use transform="matrix(0.05,0,0,0.05,22.950000000000003,0)" xlink:href="#bZ"/><use transform="matrix(0.05,0,0,0.05,32.95,0)" xlink:href="#co"/><use transform="matrix(0.05,0,0,0.05,36.900000000000006,0)" xlink:href="#bF"/><use transform="matrix(0.05,0,0,0.05,40.85000000000001,0)" xlink:href="#bR"/><use transform="matrix(0.05,0,0,0.05,45.85000000000001,0)" xlink:href="#cr"/></g><path fill="#fff" d="M125-24c46 0 70-25 89-51l25 16C214-24 183 4 123 4 8 4-5-146 60-208c32-50 158-61 191-5 5 7 9 14 11 22l-32 10c-9-28-33-43-69-43-74 0-108 51-108 125 0 46 24 75 72 75" id="cB"/><g id="Y"><use transform="matrix(0.05,0,0,0.05,0,0)" xlink:href="#cB"/><use transform="matrix(0.05,0,0,0.05,12.950000000000001,0)" xlink:href="#bZ"/><use transform="matrix(0.05,0,0,0.05,22.950000000000003,0)" xlink:href="#bW"/><use transform="matrix(0.05,0,0,0.05,32.95,0)" xlink:href="#bR"/><use transform="matrix(0.05,0,0,0.05,37.95,0)" xlink:href="#bT"/><use transform="matrix(0.05,0,0,0.05,47.95,0)" xlink:href="#bV"/><use transform="matrix(0.05,0,0,0.05,53.900000000000006,0)" xlink:href="#bH"/></g><g id="Z"><use transform="matrix(0.05,0,0,0.05,0,0)" xlink:href="#bW"/><use transform="matrix(0.05,0,0,0.05,10,0)" xlink:href="#co"/><use transform="matrix(0.05,0,0,0.05,13.949999999999998,0)" xlink:href="#bT"/><use transform="matrix(0.05,0,0,0.05,23.95,0)" xlink:href="#ca"/><use transform="matrix(0.05,0,0,0.05,33.95,0)" xlink:href="#bF"/><use transform="matrix(0.05,0,0,0.05,37.900000000000006,0)" xlink:href="#bY"/></g><g id="aa"><use transform="matrix(0.05,0,0,0.05,0,0)" xlink:href="#bQ"/><use transform="matrix(0.05,0,0,0.05,14,0)" xlink:href="#bZ"/><use transform="matrix(0.05,0,0,0.05,24,0)" xlink:href="#cb"/><use transform="matrix(0.05,0,0,0.05,38.95,0)" xlink:href="#bH"/></g><path fill="#fff" d="M248-139C247-14 144 9 11 0l48-248c105-6 190 8 189 109zm-34 0c1-70-52-87-126-82L50-27c98 7 163-21 164-112" id="cC"/><g id="ab"><use transform="matrix(0.05,0,0,0.05,0,0)" xlink:href="#cC"/><use transform="matrix(0.05,0,0,0.05,12.950000000000001,0)" xlink:href="#bH"/><use transform="matrix(0.05,0,0,0.05,22.950000000000003,0)" xlink:href="#cd"/><use transform="matrix(0.05,0,0,0.05,31.950000000000003,0)" xlink:href="#bH"/><use transform="matrix(0.05,0,0,0.05,41.95,0)" xlink:href="#co"/><use transform="matrix(0.05,0,0,0.05,45.900000000000006,0)" xlink:href="#bI"/><use transform="matrix(0.05,0,0,0.05,55.900000000000006,0)" xlink:href="#bW"/><use transform="matrix(0.05,0,0,0.05,65.9,0)" xlink:href="#cb"/><use transform="matrix(0.05,0,0,0.05,80.85000000000001,0)" xlink:href="#bH"/><use transform="matrix(0.05,0,0,0.05,90.85000000000001,0)" xlink:href="#bY"/><use transform="matrix(0.05,0,0,0.05,100.85000000000001,0)" xlink:href="#bR"/></g><path fill="#fff" d="M151-220L108 0H75l42-220H32l6-28h203l-5 28h-85" id="cD"/><g id="ac"><use transform="matrix(0.05,0,0,0.05,0,0)" xlink:href="#cD"/><use transform="matrix(0.05,0,0,0.05,9.3,0)" xlink:href="#bI"/><use transform="matrix(0.05,0,0,0.05,19.3,0)" xlink:href="#bI"/><use transform="matrix(0.05,0,0,0.05,29.3,0)" xlink:href="#co"/><use transform="matrix(0.05,0,0,0.05,33.25,0)" xlink:href="#bJ"/><use transform="matrix(0.05,0,0,0.05,42.25,0)" xlink:href="#bH"/><use transform="matrix(0.05,0,0,0.05,52.25,0)" xlink:href="#bR"/></g><path fill="#fff" d="M187 0l-14-72H61L19 0h-37l149-248h38L221 0h-34zm-19-99l-22-123L76-99h92" id="cE"/><g id="ad"><use transform="matrix(0.05,0,0,0.05,0,0)" xlink:href="#cE"/><use transform="matrix(0.05,0,0,0.05,12,0)" xlink:href="#co"/><use transform="matrix(0.05,0,0,0.05,15.949999999999998,0)" xlink:href="#bF"/><use transform="matrix(0.05,0,0,0.05,19.9,0)" xlink:href="#ci"/><use transform="matrix(0.05,0,0,0.05,28.899999999999995,0)" xlink:href="#bH"/><use transform="matrix(0.05,0,0,0.05,38.9,0)" xlink:href="#bE"/><use transform="matrix(0.05,0,0,0.05,50.55,0)" xlink:href="#bF"/><use transform="matrix(0.05,0,0,0.05,54.5,0)" xlink:href="#bJ"/><use transform="matrix(0.05,0,0,0.05,63.5,0)" xlink:href="#bF"/><use transform="matrix(0.05,0,0,0.05,67.45,0)" xlink:href="#bI"/><use transform="matrix(0.05,0,0,0.05,77.45,0)" xlink:href="#bY"/></g><g id="ae"><use transform="matrix(0.05,0,0,0.05,0,0)" xlink:href="#bW"/><use transform="matrix(0.05,0,0,0.05,10,0)" xlink:href="#cl"/><use transform="matrix(0.05,0,0,0.05,20,0)" xlink:href="#bI"/><use transform="matrix(0.05,0,0,0.05,30,0)" xlink:href="#bR"/><use transform="matrix(0.05,0,0,0.05,35,0)" xlink:href="#bI"/><use transform="matrix(0.05,0,0,0.05,45,0)" xlink:href="#ca"/><use transform="matrix(0.05,0,0,0.05,55,0)" xlink:href="#bV"/><use transform="matrix(0.05,0,0,0.05,60.95,0)" xlink:href="#bZ"/><use transform="matrix(0.05,0,0,0.05,70.95,0)" xlink:href="#cb"/><use transform="matrix(0.05,0,0,0.05,85.9,0)" xlink:href="#cb"/><use transform="matrix(0.05,0,0,0.05,100.85000000000001,0)" xlink:href="#bH"/><use transform="matrix(0.05,0,0,0.05,110.85000000000001,0)" xlink:href="#bR"/><use transform="matrix(0.05,0,0,0.05,115.85000000000001,0)" xlink:href="#bV"/><use transform="matrix(0.05,0,0,0.05,121.80000000000001,0)" xlink:href="#cr"/></g><g id="af"><use transform="matrix(0.05,0,0,0.05,0,0)" xlink:href="#ch"/><use transform="matrix(0.05,0,0,0.05,5,0)" xlink:href="#bV"/><use transform="matrix(0.05,0,0,0.05,10.95,0)" xlink:href="#bZ"/><use transform="matrix(0.05,0,0,0.05,20.95,0)" xlink:href="#cb"/><use transform="matrix(0.05,0,0,0.05,35.9,0)" xlink:href="#bH"/><use transform="matrix(0.05,0,0,0.05,45.9,0)" xlink:href="#ce"/><use transform="matrix(0.05,0,0,0.05,58.85,0)" xlink:href="#bI"/><use transform="matrix(0.05,0,0,0.05,68.85,0)" xlink:href="#bV"/><use transform="matrix(0.05,0,0,0.05,74.8,0)" xlink:href="#ck"/></g><g id="ag"><use transform="matrix(0.05,0,0,0.05,0,0)" xlink:href="#cq"/><use transform="matrix(0.05,0,0,0.05,14.950000000000001,0)" xlink:href="#bZ"/><use transform="matrix(0.05,0,0,0.05,24.950000000000003,0)" xlink:href="#bW"/><use transform="matrix(0.05,0,0,0.05,34.95,0)" xlink:href="#bJ"/></g><path fill="#fff" d="M219-77C219 17 104-2 11 0l48-248c73 2 169-15 169 57 0 38-24 54-60 60 29 5 51 21 51 54zm-26-111c0-44-62-31-105-33l-16 79c55 0 121 9 121-46zm-7 110c-1-49-69-36-119-38L50-27c61-1 137 12 136-51" id="cF"/><g id="ah"><use transform="matrix(0.05,0,0,0.05,0,0)" xlink:href="#cF"/><use transform="matrix(0.05,0,0,0.05,12,0)" xlink:href="#bZ"/><use transform="matrix(0.05,0,0,0.05,22,0)" xlink:href="#ck"/><use transform="matrix(0.05,0,0,0.05,31,0)" xlink:href="#bH"/><use transform="matrix(0.05,0,0,0.05,41,0)" xlink:href="#bV"/></g><g id="ai"><use transform="matrix(0.05,0,0,0.05,0,0)" xlink:href="#cF"/><use transform="matrix(0.05,0,0,0.05,12,0)" xlink:href="#bT"/><use transform="matrix(0.05,0,0,0.05,22,0)" xlink:href="#bF"/><use transform="matrix(0.05,0,0,0.05,25.950000000000003,0)" xlink:href="#co"/><use transform="matrix(0.05,0,0,0.05,29.899999999999995,0)" xlink:href="#bG"/><use transform="matrix(0.05,0,0,0.05,39.9,0)" xlink:href="#bF"/><use transform="matrix(0.05,0,0,0.05,43.85,0)" xlink:href="#bY"/><use transform="matrix(0.05,0,0,0.05,53.85,0)" xlink:href="#ca"/></g><g id="aj"><use transform="matrix(0.05,0,0,0.05,0,0)" xlink:href="#bQ"/><use transform="matrix(0.05,0,0,0.05,14,0)" xlink:href="#bH"/><use transform="matrix(0.05,0,0,0.05,24,0)" xlink:href="#bY"/><use transform="matrix(0.05,0,0,0.05,34,0)" xlink:href="#bH"/><use transform="matrix(0.05,0,0,0.05,44,0)" xlink:href="#bV"/><use transform="matrix(0.05,0,0,0.05,49.95,0)" xlink:href="#bZ"/><use transform="matrix(0.05,0,0,0.05,59.95,0)" xlink:href="#bR"/><use transform="matrix(0.05,0,0,0.05,64.95,0)" xlink:href="#bI"/><use transform="matrix(0.05,0,0,0.05,74.95,0)" xlink:href="#bV"/></g><path fill="#fff" d="M238-179c0 84-86 86-175 82L45 0H11l48-248c82 0 179-12 179 69zm-34 1c0-53-64-42-116-43l-19 98c63 0 135 9 135-55" id="cG"/><g id="ak"><use transform="matrix(0.05,0,0,0.05,0,0)" xlink:href="#cv"/><use transform="matrix(0.05,0,0,0.05,12,0)" xlink:href="#cg"/><use transform="matrix(0.05,0,0,0.05,17,0)" xlink:href="#bQ"/><use transform="matrix(0.05,0,0,0.05,31,0)" xlink:href="#bQ"/><use transform="matrix(0.05,0,0,0.05,45,0)" xlink:href="#cA"/><use transform="matrix(0.05,0,0,0.05,57.95,0)" xlink:href="#cE"/><use transform="matrix(0.05,0,0,0.05,69.95,0)" xlink:href="#cG"/><use transform="matrix(0.05,0,0,0.05,81.95,0)" xlink:href="#bS"/></g><g id="al"><use transform="matrix(0.05,0,0,0.05,0,0)" xlink:href="#cw"/><use transform="matrix(0.05,0,0,0.05,10,0)" xlink:href="#cx"/><use transform="matrix(0.05,0,0,0.05,20,0)" xlink:href="#cy"/><use transform="matrix(0.05,0,0,0.05,30,0)" xlink:href="#cz"/></g><g id="am"><use transform="matrix(0.05,0,0,0.05,0,0)" xlink:href="#cG"/><use transform="matrix(0.05,0,0,0.05,12,0)" xlink:href="#bV"/><use transform="matrix(0.05,0,0,0.05,17.95,0)" xlink:href="#bH"/><use transform="matrix(0.05,0,0,0.05,27.950000000000003,0)" xlink:href="#bJ"/><use transform="matrix(0.05,0,0,0.05,36.95,0)" xlink:href="#bH"/><use transform="matrix(0.05,0,0,0.05,46.95,0)" xlink:href="#bY"/><use transform="matrix(0.05,0,0,0.05,56.95,0)" xlink:href="#bR"/><use transform="matrix(0.05,0,0,0.05,61.95,0)" xlink:href="#bZ"/><use transform="matrix(0.05,0,0,0.05,71.95,0)" xlink:href="#bR"/><use transform="matrix(0.05,0,0,0.05,76.95,0)" xlink:href="#bF"/><use transform="matrix(0.05,0,0,0.05,80.9,0)" xlink:href="#bI"/><use transform="matrix(0.05,0,0,0.05,90.9,0)" xlink:href="#bY"/><use transform="matrix(0.05,0,0,0.05,100.9,0)" xlink:href="#bJ"/></g><path fill="#fff" d="M29-66c0 49 71 55 82 11 13-52 22-111 33-165H93l5-28h85L149-74C151 11 7 37-1-60" id="cH"/><g id="an"><use transform="matrix(0.05,0,0,0.05,0,0)" xlink:href="#cH"/><use transform="matrix(0.05,0,0,0.05,9,0)" xlink:href="#bI"/><use transform="matrix(0.05,0,0,0.05,19,0)" xlink:href="#cr"/><use transform="matrix(0.05,0,0,0.05,28,0)" xlink:href="#cc"/><use transform="matrix(0.05,0,0,0.05,42,0)" xlink:href="#ch"/><use transform="matrix(0.05,0,0,0.05,47,0)" xlink:href="#bE"/><use transform="matrix(0.05,0,0,0.05,58.35,0)" xlink:href="#bH"/><use transform="matrix(0.05,0,0,0.05,68.35,0)" xlink:href="#cn"/></g><g id="ao"><use transform="matrix(0.05,0,0,0.05,0,0)" xlink:href="#bS"/><use transform="matrix(0.05,0,0,0.05,12.950000000000001,0)" xlink:href="#bI"/><use transform="matrix(0.05,0,0,0.05,22.950000000000003,0)" xlink:href="#bT"/><use transform="matrix(0.05,0,0,0.05,32.95,0)" xlink:href="#bG"/><use transform="matrix(0.05,0,0,0.05,42.95,0)" xlink:href="#bF"/><use transform="matrix(0.05,0,0,0.05,46.900000000000006,0)" xlink:href="#bY"/><use transform="matrix(0.05,0,0,0.05,56.900000000000006,0)" xlink:href="#bF"/><use transform="matrix(0.05,0,0,0.05,60.85,0)" xlink:href="#bQ"/><use transform="matrix(0.05,0,0,0.05,74.85000000000001,0)" xlink:href="#bH"/><use transform="matrix(0.05,0,0,0.05,84.85000000000001,0)" xlink:href="#bR"/><use transform="matrix(0.05,0,0,0.05,89.85000000000001,0)" xlink:href="#bR"/><use transform="matrix(0.05,0,0,0.05,94.85000000000001,0)" xlink:href="#bF"/><use transform="matrix(0.05,0,0,0.05,98.80000000000001,0)" xlink:href="#bY"/><use transform="matrix(0.05,0,0,0.05,108.80000000000001,0)" xlink:href="#ca"/><use transform="matrix(0.05,0,0,0.05,118.80000000000001,0)" xlink:href="#cv"/><use transform="matrix(0.05,0,0,0.05,130.8,0)" xlink:href="#bR"/><use transform="matrix(0.05,0,0,0.05,135.8,0)" xlink:href="#bZ"/><use transform="matrix(0.05,0,0,0.05,145.8,0)" xlink:href="#bV"/><use transform="matrix(0.05,0,0,0.05,151.75,0)" xlink:href="#bR"/><use transform="matrix(0.05,0,0,0.05,156.75,0)" xlink:href="#bH"/><use transform="matrix(0.05,0,0,0.05,166.75,0)" xlink:href="#bG"/></g><path fill="#fff" d="M190 0H-7l5-25 185-195H49l5-28h176l-5 25L40-27h155" id="cI"/><g id="ap"><use transform="matrix(0.05,0,0,0.05,0,0)" xlink:href="#cI"/><use transform="matrix(0.05,0,0,0.05,10.950000000000001,0)" xlink:href="#cF"/><use transform="matrix(0.05,0,0,0.05,22.950000000000003,0)" xlink:href="#bV"/><use transform="matrix(0.05,0,0,0.05,28.900000000000002,0)" xlink:href="#bT"/><use transform="matrix(0.05,0,0,0.05,38.900000000000006,0)" xlink:href="#bJ"/><use transform="matrix(0.05,0,0,0.05,47.900000000000006,0)" xlink:href="#cl"/></g><g id="aq"><use transform="matrix(0.05,0,0,0.05,0,0)" xlink:href="#cq"/><use transform="matrix(0.05,0,0,0.05,14.950000000000001,0)" xlink:href="#bZ"/><use transform="matrix(0.05,0,0,0.05,24.950000000000003,0)" xlink:href="#bW"/><use transform="matrix(0.05,0,0,0.05,34.95,0)" xlink:href="#cF"/><use transform="matrix(0.05,0,0,0.05,46.95,0)" xlink:href="#bI"/><use transform="matrix(0.05,0,0,0.05,56.95,0)" xlink:href="#cn"/></g><path fill="#fff" d="M24-61C-1-165 59-251 163-251c67 1 105 36 105 101 0 88-46 140-124 152 2 33 24 47 60 39l-3 23c-50 15-89-11-89-61-46-3-79-26-88-64zm210-73c6-55-18-91-72-90-77 1-111 51-111 125 0 49 24 75 73 75 72 0 103-45 110-110" id="cJ"/><g id="ar"><use transform="matrix(0.05,0,0,0.05,0,0)" xlink:href="#cJ"/><use transform="matrix(0.05,0,0,0.05,14,0)" xlink:href="#bT"/><use transform="matrix(0.05,0,0,0.05,24,0)" xlink:href="#bZ"/><use transform="matrix(0.05,0,0,0.05,34,0)" xlink:href="#bG"/><use transform="matrix(0.05,0,0,0.05,44,0)" xlink:href="#bJ"/><use transform="matrix(0.05,0,0,0.05,53,0)" xlink:href="#bW"/><use transform="matrix(0.05,0,0,0.05,63,0)" xlink:href="#bF"/><use transform="matrix(0.05,0,0,0.05,66.95,0)" xlink:href="#bY"/><use transform="matrix(0.05,0,0,0.05,76.95,0)" xlink:href="#bY"/><use transform="matrix(0.05,0,0,0.05,86.95,0)" xlink:href="#bH"/><use transform="matrix(0.05,0,0,0.05,96.95,0)" xlink:href="#bV"/></g><g id="as"><use transform="matrix(0.05,0,0,0.05,0,0)" xlink:href="#bQ"/><use transform="matrix(0.05,0,0,0.05,14,0)" xlink:href="#cE"/><use transform="matrix(0.05,0,0,0.05,26,0)" xlink:href="#bX"/><use transform="matrix(0.05,0,0,0.05,38,0)" xlink:href="#cE"/></g><g id="at"><use transform="matrix(0.05,0,0,0.05,0,0)" xlink:href="#cg"/><use transform="matrix(0.05,0,0,0.05,5,0)" xlink:href="#bY"/><use transform="matrix(0.05,0,0,0.05,15,0)" xlink:href="#bJ"/><use transform="matrix(0.05,0,0,0.05,24,0)" xlink:href="#bR"/><use transform="matrix(0.05,0,0,0.05,29,0)" xlink:href="#bZ"/><use transform="matrix(0.05,0,0,0.05,39,0)" xlink:href="#bY"/><use transform="matrix(0.05,0,0,0.05,49,0)" xlink:href="#bR"/></g><g id="au"><use transform="matrix(0.05,0,0,0.05,0,0)" xlink:href="#cq"/><use transform="matrix(0.05,0,0,0.05,14.950000000000001,0)" xlink:href="#bH"/><use transform="matrix(0.05,0,0,0.05,24.950000000000003,0)" xlink:href="#bJ"/><use transform="matrix(0.05,0,0,0.05,33.95,0)" xlink:href="#cl"/><use transform="matrix(0.05,0,0,0.05,43.95,0)" xlink:href="#bH"/><use transform="matrix(0.05,0,0,0.05,53.95,0)" xlink:href="#bJ"/></g><g id="av"><use transform="matrix(0.05,0,0,0.05,0,0)" xlink:href="#cJ"/><use transform="matrix(0.05,0,0,0.05,14,0)" xlink:href="#bT"/><use transform="matrix(0.05,0,0,0.05,24,0)" xlink:href="#bZ"/><use transform="matrix(0.05,0,0,0.05,34,0)" xlink:href="#bG"/></g><g id="aw"><use transform="matrix(0.05,0,0,0.05,0,0)" xlink:href="#cA"/><use transform="matrix(0.05,0,0,0.05,12.950000000000001,0)" xlink:href="#bH"/><use transform="matrix(0.05,0,0,0.05,22.950000000000003,0)" xlink:href="#cb"/><use transform="matrix(0.05,0,0,0.05,37.900000000000006,0)" xlink:href="#bH"/><use transform="matrix(0.05,0,0,0.05,47.900000000000006,0)" xlink:href="#bJ"/><use transform="matrix(0.05,0,0,0.05,56.900000000000006,0)" xlink:href="#cl"/><use transform="matrix(0.05,0,0,0.05,66.9,0)" xlink:href="#bH"/><use transform="matrix(0.05,0,0,0.05,76.9,0)" xlink:href="#bV"/></g><path fill="#fff" d="M148-71c0-36-31-44-71-41l5-28c46 3 81-6 81-50 0-23-15-35-39-35-30 0-49 17-56 41l-32-3c12-39 42-63 90-64 43 0 69 19 71 60 1 43-30 58-65 66 27 5 49 22 49 53 0 85-133 99-164 35-4-7-7-15-9-22l29-9c8 25 25 45 58 45 34 1 53-17 53-48" id="cK"/><g id="ax"><use transform="matrix(0.05,0,0,0.05,0,0)" xlink:href="#cK"/><use transform="matrix(0.05,0,0,0.05,10,0)" xlink:href="#cC"/></g><g id="ay"><use transform="matrix(0.05,0,0,0.05,0,0)" xlink:href="#cv"/><use transform="matrix(0.05,0,0,0.05,12,0)" xlink:href="#bR"/><use transform="matrix(0.05,0,0,0.05,17,0)" xlink:href="#bV"/><use transform="matrix(0.05,0,0,0.05,22.95,0)" xlink:href="#bZ"/><use transform="matrix(0.05,0,0,0.05,32.95,0)" xlink:href="#bF"/><use transform="matrix(0.05,0,0,0.05,36.900000000000006,0)" xlink:href="#ca"/><use transform="matrix(0.05,0,0,0.05,46.900000000000006,0)" xlink:href="#cl"/><use transform="matrix(0.05,0,0,0.05,56.900000000000006,0)" xlink:href="#bR"/></g><g id="az"><use transform="matrix(0.05,0,0,0.05,0,0)" xlink:href="#cv"/><use transform="matrix(0.05,0,0,0.05,12,0)" xlink:href="#ck"/><use transform="matrix(0.05,0,0,0.05,21,0)" xlink:href="#bH"/><use transform="matrix(0.05,0,0,0.05,31,0)" xlink:href="#co"/><use transform="matrix(0.05,0,0,0.05,34.95,0)" xlink:href="#bH"/><use transform="matrix(0.05,0,0,0.05,44.95,0)" xlink:href="#bR"/><use transform="matrix(0.05,0,0,0.05,49.95,0)" xlink:href="#bI"/><use transform="matrix(0.05,0,0,0.05,59.95,0)" xlink:href="#bY"/></g><g id="aA"><use transform="matrix(0.05,0,0,0.05,0,0)" xlink:href="#cG"/><use transform="matrix(0.05,0,0,0.05,12,0)" xlink:href="#cC"/><use transform="matrix(0.05,0,0,0.05,24.950000000000003,0)" xlink:href="#bQ"/></g><g id="aB"><use transform="matrix(0.05,0,0,0.05,0,0)" xlink:href="#bW"/><use transform="matrix(0.05,0,0,0.05,10,0)" xlink:href="#bV"/><use transform="matrix(0.05,0,0,0.05,15.949999999999998,0)" xlink:href="#bI"/><use transform="matrix(0.05,0,0,0.05,25.950000000000003,0)" xlink:href="#ci"/><use transform="matrix(0.05,0,0,0.05,34.95,0)" xlink:href="#bH"/><use transform="matrix(0.05,0,0,0.05,44.95,0)" xlink:href="#bJ"/><use transform="matrix(0.05,0,0,0.05,53.95,0)" xlink:href="#bJ"/></g><g id="aC"><use transform="matrix(0.05,0,0,0.05,0,0)" xlink:href="#ce"/><use transform="matrix(0.05,0,0,0.05,12.950000000000001,0)" xlink:href="#cl"/><use transform="matrix(0.05,0,0,0.05,22.950000000000003,0)" xlink:href="#bF"/><use transform="matrix(0.05,0,0,0.05,26.900000000000002,0)" xlink:href="#co"/><use transform="matrix(0.05,0,0,0.05,30.85,0)" xlink:href="#bH"/></g><g id="aD"><use transform="matrix(0.05,0,0,0.05,0,0)" xlink:href="#cr"/><use transform="matrix(0.05,0,0,0.05,9,0)" xlink:href="#bI"/><use transform="matrix(0.05,0,0,0.05,19,0)" xlink:href="#bT"/></g><g id="aE"><use transform="matrix(0.05,0,0,0.05,0,0)" xlink:href="#bJ"/><use transform="matrix(0.05,0,0,0.05,9,0)" xlink:href="#co"/><use transform="matrix(0.05,0,0,0.05,12.949999999999998,0)" xlink:href="#bH"/><use transform="matrix(0.05,0,0,0.05,22.95,0)" xlink:href="#bH"/><use transform="matrix(0.05,0,0,0.05,32.95,0)" xlink:href="#bW"/></g><g id="aF"><use transform="matrix(0.05,0,0,0.05,0,0)" xlink:href="#cD"/><use transform="matrix(0.05,0,0,0.05,9.3,0)" xlink:href="#bH"/><use transform="matrix(0.05,0,0,0.05,19.3,0)" xlink:href="#cn"/><use transform="matrix(0.05,0,0,0.05,28.3,0)" xlink:href="#bR"/><use transform="matrix(0.05,0,0,0.05,33.3,0)" xlink:href="#bT"/><use transform="matrix(0.05,0,0,0.05,43.3,0)" xlink:href="#bV"/><use transform="matrix(0.05,0,0,0.05,49.25,0)" xlink:href="#bH"/></g><g id="aG"><use transform="matrix(0.05,0,0,0.05,0,0)" xlink:href="#cv"/><use transform="matrix(0.05,0,0,0.05,12,0)" xlink:href="#cl"/><use transform="matrix(0.05,0,0,0.05,22,0)" xlink:href="#bH"/><use transform="matrix(0.05,0,0,0.05,32,0)" xlink:href="#bH"/><use transform="matrix(0.05,0,0,0.05,42,0)" xlink:href="#bR"/><use transform="matrix(0.05,0,0,0.05,47,0)" xlink:href="#bJ"/></g><g id="aH"><use transform="matrix(0.05,0,0,0.05,0,0)" xlink:href="#bK"/><use transform="matrix(0.05,0,0,0.05,10,0)" xlink:href="#br"/><use transform="matrix(0.05,0,0,0.05,20,0)" xlink:href="#bu"/><use transform="matrix(0.05,0,0,0.05,30,0)" xlink:href="#bN"/><use transform="matrix(0.05,0,0,0.05,40,0)" xlink:href="#bP"/><use transform="matrix(0.05,0,0,0.05,50,0)" xlink:href="#br"/><use transform="matrix(0.05,0,0,0.05,60,0)" xlink:href="#bN"/><use transform="matrix(0.05,0,0,0.05,70,0)" xlink:href="#bL"/></g><g id="aI"><use transform="matrix(0.05,0,0,0.05,0,0)" xlink:href="#cB"/><use transform="matrix(0.05,0,0,0.05,12.950000000000001,0)" xlink:href="#cc"/><use transform="matrix(0.05,0,0,0.05,26.950000000000003,0)" xlink:href="#cG"/><use transform="matrix(0.05,0,0,0.05,38.95,0)" xlink:href="#cv"/></g><g id="aJ"><use transform="matrix(0.05,0,0,0.05,0,0)" xlink:href="#cv"/><use transform="matrix(0.05,0,0,0.05,12,0)" xlink:href="#cc"/><use transform="matrix(0.05,0,0,0.05,26,0)" xlink:href="#cG"/><use transform="matrix(0.05,0,0,0.05,38,0)" xlink:href="#cv"/></g><path fill="#fff" d="M197 0v-115H63V0H30v-248h33v105h134v-105h34V0h-34" id="cL"/><g id="aK"><use transform="matrix(0.05,0,0,0.05,0,0)" xlink:href="#cL"/><use transform="matrix(0.05,0,0,0.05,12.950000000000001,0)" xlink:href="#bx"/><use transform="matrix(0.05,0,0,0.05,22.950000000000003,0)" xlink:href="#bP"/><use transform="matrix(0.05,0,0,0.05,32.95,0)" xlink:href="#bw"/><use transform="matrix(0.05,0,0,0.05,42.95,0)" xlink:href="#bv"/><use transform="matrix(0.05,0,0,0.05,46.900000000000006,0)" xlink:href="#bu"/><use transform="matrix(0.05,0,0,0.05,56.900000000000006,0)" xlink:href="#bv"/></g><path fill="#fff" d="M27 0v-27h64v-190l-56 39v-29l58-41h29v221h61V0H27" id="cM"/><path fill="#fff" d="M134-131c28 9 52 24 51 62-1 50-34 73-85 73S17-19 16-69c0-36 21-54 49-61-75-25-45-126 34-121 46 3 78 18 79 63 0 33-17 51-44 57zm-34-11c31 1 46-15 46-44 0-28-17-43-47-42-29 0-46 13-45 42 1 28 16 44 46 44zm1 122c35 0 51-18 51-52 0-30-18-46-53-46-33 0-51 17-51 47 0 34 19 51 53 51" id="cN"/><g id="aL"><use transform="matrix(0.05,0,0,0.05,0,0)" xlink:href="#cM"/><use transform="matrix(0.05,0,0,0.05,10,0)" xlink:href="#cN"/></g><g id="aM"><use transform="matrix(0.05,0,0,0.05,0,0)" xlink:href="#bS"/><use transform="matrix(0.05,0,0,0.05,12.950000000000001,0)" xlink:href="#bH"/><use transform="matrix(0.05,0,0,0.05,22.950000000000003,0)" xlink:href="#bF"/><use transform="matrix(0.05,0,0,0.05,26.900000000000002,0)" xlink:href="#ca"/><use transform="matrix(0.05,0,0,0.05,36.900000000000006,0)" xlink:href="#cl"/><use transform="matrix(0.05,0,0,0.05,46.900000000000006,0)" xlink:href="#bR"/><use transform="matrix(0.05,0,0,0.05,51.900000000000006,0)" xlink:href="#ch"/><use transform="matrix(0.05,0,0,0.05,56.900000000000006,0)" xlink:href="#bF"/><use transform="matrix(0.05,0,0,0.05,60.85,0)" xlink:href="#bH"/><use transform="matrix(0.05,0,0,0.05,70.85000000000001,0)" xlink:href="#co"/><use transform="matrix(0.05,0,0,0.05,74.80000000000001,0)" xlink:href="#bG"/></g><g id="aN"><use transform="matrix(0.05,0,0,0.05,0,0)" xlink:href="#cD"/><use transform="matrix(0.05,0,0,0.05,9.3,0)" xlink:href="#bH"/><use transform="matrix(0.05,0,0,0.05,19.3,0)" xlink:href="#bV"/><use transform="matrix(0.05,0,0,0.05,25.25,0)" xlink:href="#bV"/><use transform="matrix(0.05,0,0,0.05,31.200000000000003,0)" xlink:href="#bZ"/><use transform="matrix(0.05,0,0,0.05,41.2,0)" xlink:href="#ci"/><use transform="matrix(0.05,0,0,0.05,50.2,0)" xlink:href="#bF"/><use transform="matrix(0.05,0,0,0.05,54.150000000000006,0)" xlink:href="#bY"/><use transform="matrix(0.05,0,0,0.05,64.15,0)" xlink:href="#ca"/></g><g id="aO"><use transform="matrix(0.05,0,0,0.05,0,0)" xlink:href="#cv"/><use transform="matrix(0.05,0,0,0.05,12,0)" xlink:href="#cc"/><use transform="matrix(0.05,0,0,0.05,26,0)" xlink:href="#cG"/></g><path fill="#fff" d="M14 0l8-38h34L48 0H14" id="cO"/><g id="aP"><use transform="matrix(0.05,0,0,0.05,0,0)" xlink:href="#cw"/><use transform="matrix(0.05,0,0,0.05,10,0)" xlink:href="#cO"/><use transform="matrix(0.05,0,0,0.05,15,0)" xlink:href="#cx"/></g><path fill="#fff" d="M173 0L80-213 41 0H11l48-248h37l94 214 40-214h30L212 0h-39" id="cP"/><g id="aQ"><use transform="matrix(0.05,0,0,0.05,0,0)" xlink:href="#cP"/><use transform="matrix(0.05,0,0,0.05,12.950000000000001,0)" xlink:href="#bH"/><use transform="matrix(0.05,0,0,0.05,22.950000000000003,0)" xlink:href="#ce"/></g><g id="aR"><use transform="matrix(0.05,0,0,0.05,0,0)" xlink:href="#bQ"/><use transform="matrix(0.05,0,0,0.05,14,0)" xlink:href="#bV"/><use transform="matrix(0.05,0,0,0.05,19.95,0)" xlink:href="#bI"/><use transform="matrix(0.05,0,0,0.05,29.950000000000003,0)" xlink:href="#bT"/><use transform="matrix(0.05,0,0,0.05,39.95,0)" xlink:href="#bW"/></g><g id="aS"><use transform="matrix(0.05,0,0,0.05,0,0)" xlink:href="#cv"/><use transform="matrix(0.05,0,0,0.05,12,0)" xlink:href="#cc"/><use transform="matrix(0.05,0,0,0.05,26,0)" xlink:href="#cG"/><use transform="matrix(0.05,0,0,0.05,38,0)" xlink:href="#bJ"/></g><g id="aT"><use transform="matrix(0.05,0,0,0.05,0,0)" xlink:href="#cv"/><use transform="matrix(0.05,0,0,0.05,12,0)" xlink:href="#bI"/><use transform="matrix(0.05,0,0,0.05,22,0)" xlink:href="#co"/><use transform="matrix(0.05,0,0,0.05,25.950000000000003,0)" xlink:href="#bZ"/><use transform="matrix(0.05,0,0,0.05,35.95,0)" xlink:href="#bV"/><use transform="matrix(0.05,0,0,0.05,41.900000000000006,0)" xlink:href="#bF"/><use transform="matrix(0.05,0,0,0.05,45.85000000000001,0)" xlink:href="#bJ"/></g><g id="aU"><use transform="matrix(0.05,0,0,0.05,0,0)" xlink:href="#cG"/><use transform="matrix(0.05,0,0,0.05,12,0)" xlink:href="#cl"/><use transform="matrix(0.05,0,0,0.05,22,0)" xlink:href="#cr"/><use transform="matrix(0.05,0,0,0.05,31,0)" xlink:href="#bJ"/><use transform="matrix(0.05,0,0,0.05,40,0)" xlink:href="#bF"/><use transform="matrix(0.05,0,0,0.05,43.95,0)" xlink:href="#ci"/><use transform="matrix(0.05,0,0,0.05,52.95,0)" xlink:href="#bZ"/><use transform="matrix(0.05,0,0,0.05,62.95,0)" xlink:href="#co"/><use transform="matrix(0.05,0,0,0.05,66.9,0)" xlink:href="#co"/><use transform="matrix(0.05,0,0,0.05,70.85000000000001,0)" xlink:href="#cr"/></g><g id="aV"><use transform="matrix(0.05,0,0,0.05,0,0)" xlink:href="#bU"/><use transform="matrix(0.05,0,0,0.05,10,0)" xlink:href="#bZ"/><use transform="matrix(0.05,0,0,0.05,20,0)" xlink:href="#bJ"/><use transform="matrix(0.05,0,0,0.05,29,0)" xlink:href="#bH"/><use transform="matrix(0.05,0,0,0.05,39,0)" xlink:href="#bG"/></g><path fill="#fff" d="M62-99C39-31 123 0 170-40s38-139 58-208h34C234-144 253 4 115 4 49 4 18-43 31-112l26-136h34" id="cQ"/><g id="aW"><use transform="matrix(0.05,0,0,0.05,0,0)" xlink:href="#cQ"/><use transform="matrix(0.05,0,0,0.05,12.950000000000001,0)" xlink:href="#cv"/><use transform="matrix(0.05,0,0,0.05,24.950000000000003,0)" xlink:href="#cC"/></g><g id="aX"><use transform="matrix(0.05,0,0,0.05,0,0)" xlink:href="#co"/><use transform="matrix(0.05,0,0,0.05,3.95,0)" xlink:href="#bZ"/><use transform="matrix(0.05,0,0,0.05,13.949999999999998,0)" xlink:href="#cr"/><use transform="matrix(0.05,0,0,0.05,22.95,0)" xlink:href="#bI"/><use transform="matrix(0.05,0,0,0.05,32.95,0)" xlink:href="#bT"/><use transform="matrix(0.05,0,0,0.05,42.95,0)" xlink:href="#bR"/></g><g id="aY"><use transform="matrix(0.05,0,0,0.05,0,0)" xlink:href="#cG"/><use transform="matrix(0.05,0,0,0.05,12,0)" xlink:href="#cr"/><use transform="matrix(0.05,0,0,0.05,21,0)" xlink:href="#bR"/><use transform="matrix(0.05,0,0,0.05,26,0)" xlink:href="#cl"/><use transform="matrix(0.05,0,0,0.05,36,0)" xlink:href="#bI"/><use transform="matrix(0.05,0,0,0.05,46,0)" xlink:href="#bY"/></g><use transform="matrix(0.05,0,0,0.05,0,0)" xlink:href="#cK" id="aZ"/></defs></g></svg>